M48
; DRILL file {KiCad 9.0.7} date 2026-02-10T21:18:18+0100
; FORMAT={-:-/ absolute / metric / decimal}
; #@! TF.CreationDate,2026-02-10T21:18:18+01:00
; #@! TF.GenerationSoftware,Kicad,Pcbnew,9.0.7
; #@! TF.FileFunction,Plated,1,4,PTH
FMAT,2
METRIC
; #@! TA.AperFunction,Plated,PTH,ComponentDrill
T1C0.200
; #@! TA.AperFunction,Plated,PTH,ViaDrill
T2C0.300
; #@! TA.AperFunction,Plated,PTH,ComponentDrill
T3C0.300
; #@! TA.AperFunction,Plated,PTH,ViaDrill
T4C0.400
; #@! TA.AperFunction,Plated,PTH,ViaDrill
T5C0.500
; #@! TA.AperFunction,Plated,PTH,ComponentDrill
T6C0.600
; #@! TA.AperFunction,Plated,PTH,ComponentDrill
T7C0.800
; #@! TA.AperFunction,Plated,PTH,ComponentDrill
T8C0.800
; #@! TA.AperFunction,Plated,PTH,ComponentDrill
T9C4.300
%
G90
G05
T1
X189.95Y-82.3
X189.95Y-83.4
X190.5Y-81.75
X190.5Y-82.85
X190.5Y-83.95
X191.05Y-82.3
X191.05Y-83.4
X191.6Y-81.75
X191.6Y-82.85
X191.6Y-83.95
X192.15Y-82.3
X192.15Y-83.4
T2
X105.75Y-102.0
X111.25Y-107.25
X115.5Y-111.75
X117.75Y-114.25
X118.0Y-144.25
X118.0Y-146.0
X118.0Y-147.5
X126.5Y-147.0
X128.25Y-147.0
X129.75Y-147.0
X131.25Y-147.0
X132.5Y-147.0
X133.75Y-145.75
X134.25Y-143.25
X135.25Y-145.5
X136.5Y-70.0
X136.75Y-133.25
X136.75Y-136.75
X136.75Y-138.0
X136.75Y-139.25
X137.5Y-141.5
X138.5Y-141.5
X138.54Y-132.25
X139.25Y-119.0
X139.75Y-145.75
X139.75Y-147.25
X140.25Y-110.25
X140.25Y-141.25
X140.5Y-133.25
X140.5Y-136.75
X140.5Y-138.0
X140.5Y-139.25
X140.75Y-62.25
X140.75Y-63.25
X141.25Y-74.25
X141.5Y-63.75
X141.5Y-146.0
X142.5Y-63.75
X142.5Y-143.25
X142.615Y-121.75
X143.0Y-145.75
X143.75Y-68.25
X145.0Y-77.75
X145.8Y-70.75
X146.5Y-64.75
X147.1Y-70.75
X147.25Y-83.5
X150.0Y-130.75
X150.25Y-63.75
X150.25Y-118.5
X151.25Y-63.75
X151.75Y-87.75
X151.75Y-131.0
X152.0Y-63.25
X152.25Y-59.25
X152.5Y-83.25
X154.75Y-78.0
X156.5Y-57.25
X156.5Y-59.25
X156.75Y-86.0
X157.0Y-69.75
X159.75Y-74.75
X159.75Y-86.0
X160.25Y-96.5
X160.25Y-117.75
X161.75Y-78.75
X161.75Y-84.25
X162.75Y-87.25
X163.0Y-76.5
X164.0Y-105.75
X165.0Y-81.25
X166.75Y-80.0
X166.75Y-81.25
X166.75Y-82.5
X166.75Y-83.75
X167.5Y-79.0
X168.0Y-90.25
X168.75Y-116.25
X169.0Y-87.0
X171.25Y-80.5
X173.5Y-72.25
X173.75Y-66.0
X174.0Y-74.25
X174.75Y-62.5
X175.25Y-90.5
X176.5Y-74.0
X177.6Y-117.4
X178.5Y-88.5
X178.6Y-118.6
X180.75Y-60.0
X181.25Y-70.75
X181.25Y-86.75
X181.4Y-121.6
X182.75Y-66.0
X183.5Y-60.5
X183.5Y-87.5
X185.4Y-125.8
X186.55Y-87.682
X186.75Y-93.0
X187.0Y-75.75
X187.25Y-96.5
X187.682Y-86.55
X188.25Y-93.0
X191.25Y-63.0
X191.5Y-93.0
X193.0Y-65.25
X193.0Y-66.25
X193.0Y-67.25
X193.0Y-70.5
X194.0Y-71.5
X195.5Y-65.5
X196.75Y-65.25
T3
X172.75Y-116.71
X172.75Y-118.0
X173.72Y-116.71
X173.72Y-118.0
T4
X100.5Y-127.75
X103.0Y-127.75
X105.5Y-127.75
X107.75Y-127.75
X110.25Y-127.75
X111.5Y-126.0
X111.75Y-124.0
X112.5Y-125.0
X112.75Y-127.75
X113.25Y-126.0
X115.0Y-127.75
X117.25Y-127.75
X118.5Y-137.0
X118.5Y-141.447
X119.75Y-127.75
X120.79Y-137.0
X120.79Y-141.447
X122.25Y-127.75
X123.25Y-137.0
X123.25Y-141.447
X124.75Y-127.75
X125.54Y-137.0
X125.54Y-141.447
X127.0Y-127.75
X127.79Y-137.0
X129.5Y-127.75
X129.54Y-140.447
X129.54Y-142.697
X129.75Y-137.0
X131.75Y-127.75
X132.0Y-136.947
X134.25Y-127.75
X136.75Y-127.75
X139.0Y-127.75
X140.5Y-65.1
X141.5Y-127.75
X143.75Y-127.75
X144.54Y-140.697
X146.25Y-127.75
X146.5Y-141.25
X148.75Y-127.75
X148.79Y-136.947
X148.79Y-141.447
X151.04Y-136.947
X151.04Y-141.447
X151.04Y-145.447
X151.25Y-127.75
X151.75Y-65.5
X152.04Y-143.197
X153.5Y-127.75
X153.54Y-136.947
X153.79Y-148.697
X155.75Y-145.0
X155.79Y-136.947
X155.79Y-139.197
X155.79Y-141.447
X155.79Y-143.447
X155.79Y-148.697
X156.0Y-127.75
X157.79Y-136.947
X158.04Y-148.697
X158.5Y-127.75
X160.04Y-136.947
X161.0Y-127.75
X162.29Y-136.947
X163.25Y-127.75
X164.29Y-136.947
X165.75Y-127.75
X168.25Y-127.75
X170.75Y-127.75
X173.0Y-127.75
X174.5Y-129.25
X176.0Y-130.75
X177.5Y-132.25
X179.0Y-133.75
X180.5Y-135.25
X182.0Y-136.75
X183.25Y-138.25
X183.25Y-140.5
X183.25Y-143.0
X183.25Y-145.5
X183.25Y-148.0
X183.25Y-150.25
X183.25Y-152.75
X188.25Y-120.0
X188.45Y-104.3
X190.95Y-104.3
X193.0Y-120.0
X193.2Y-104.3
T5
X100.5Y-78.75
X100.75Y-98.5
X100.75Y-115.0
X106.25Y-97.75
X106.25Y-100.25
X106.5Y-109.75
X107.0Y-114.25
X107.5Y-107.75
X109.0Y-116.5
X110.75Y-100.5
X113.25Y-113.75
X114.25Y-61.75
X116.25Y-100.75
X116.25Y-102.5
X116.25Y-104.25
X118.5Y-125.0
X119.5Y-109.75
X119.5Y-112.5
X119.75Y-67.75
X119.75Y-73.0
X120.5Y-100.75
X120.5Y-102.5
X120.5Y-104.25
X121.0Y-125.0
X121.5Y-115.75
X122.25Y-148.75
X122.75Y-86.0
X122.75Y-90.25
X123.5Y-125.0
X124.5Y-86.0
X124.5Y-90.25
X125.75Y-67.75
X125.75Y-72.75
X126.0Y-100.75
X126.0Y-102.5
X126.0Y-104.25
X126.25Y-116.0
X128.75Y-67.75
X128.75Y-72.75
X135.5Y-95.25
X158.5Y-69.0
X166.75Y-67.0
X166.75Y-85.75
X170.75Y-76.5
X175.8Y-79.6
T7
X169.75Y-92.25
X169.75Y-94.25
X169.75Y-96.25
X169.75Y-98.25
X169.75Y-100.25
X177.8Y-58.5
X177.8Y-60.5
X177.8Y-62.5
X177.8Y-64.5
X177.8Y-66.5
T8
X145.25Y-95.3
X145.25Y-108.0
X152.87Y-95.3
X152.87Y-100.38
X152.87Y-108.0
T9
X105.5Y-62.0
X105.5Y-148.0
X166.5Y-62.0
X191.5Y-148.0
T6
X142.13Y-58.075G85X142.13Y-57.275
G05
X142.13Y-62.405G85X142.13Y-61.305
G05
X150.77Y-58.075G85X150.77Y-57.275
G05
X150.77Y-62.405G85X150.77Y-61.305
G05
M30
