%TF.GenerationSoftware,KiCad,Pcbnew,9.0.7*%
%TF.CreationDate,2026-02-10T21:18:12+01:00*%
%TF.ProjectId,Tesla_sextant_BT,5465736c-615f-4736-9578-74616e745f42,2.1*%
%TF.SameCoordinates,Original*%
%TF.FileFunction,Paste,Top*%
%TF.FilePolarity,Positive*%
%FSLAX46Y46*%
G04 Gerber Fmt 4.6, Leading zero omitted, Abs format (unit mm)*
G04 Created by KiCad (PCBNEW 9.0.7) date 2026-02-10 21:18:12*
%MOMM*%
%LPD*%
G01*
G04 APERTURE LIST*
G04 Aperture macros list*
%AMRoundRect*
0 Rectangle with rounded corners*
0 $1 Rounding radius*
0 $2 $3 $4 $5 $6 $7 $8 $9 X,Y pos of 4 corners*
0 Add a 4 corners polygon primitive as box body*
4,1,4,$2,$3,$4,$5,$6,$7,$8,$9,$2,$3,0*
0 Add four circle primitives for the rounded corners*
1,1,$1+$1,$2,$3*
1,1,$1+$1,$4,$5*
1,1,$1+$1,$6,$7*
1,1,$1+$1,$8,$9*
0 Add four rect primitives between the rounded corners*
20,1,$1+$1,$2,$3,$4,$5,0*
20,1,$1+$1,$4,$5,$6,$7,0*
20,1,$1+$1,$6,$7,$8,$9,0*
20,1,$1+$1,$8,$9,$2,$3,0*%
%AMFreePoly0*
4,1,27,-2.500000,2.000000,-1.500000,3.000000,1.750000,3.000000,1.901663,2.984505,2.066964,2.929731,2.215177,2.838312,2.338312,2.715177,2.429731,2.566964,2.484505,2.401663,2.500000,2.250000,2.500000,-2.250000,2.484505,-2.401663,2.429731,-2.566964,2.338312,-2.715177,2.215177,-2.838312,2.066964,-2.929731,1.901663,-2.984505,1.750000,-3.000000,-1.750000,-3.000000,-1.901663,-2.984505,
-2.066964,-2.929731,-2.215177,-2.838312,-2.338312,-2.715177,-2.429731,-2.566964,-2.484505,-2.401663,-2.500000,-2.250000,-2.500000,2.000000,-2.500000,2.000000,$1*%
G04 Aperture macros list end*
%ADD10RoundRect,0.250000X0.475000X-0.250000X0.475000X0.250000X-0.475000X0.250000X-0.475000X-0.250000X0*%
%ADD11RoundRect,0.250000X-0.475000X0.250000X-0.475000X-0.250000X0.475000X-0.250000X0.475000X0.250000X0*%
%ADD12R,0.700000X0.700000*%
%ADD13R,0.900000X1.500000*%
%ADD14RoundRect,0.225000X0.250000X-0.225000X0.250000X0.225000X-0.250000X0.225000X-0.250000X-0.225000X0*%
%ADD15RoundRect,0.250000X-0.250000X-0.475000X0.250000X-0.475000X0.250000X0.475000X-0.250000X0.475000X0*%
%ADD16RoundRect,0.150000X0.150000X-0.825000X0.150000X0.825000X-0.150000X0.825000X-0.150000X-0.825000X0*%
%ADD17RoundRect,0.250000X0.250000X0.475000X-0.250000X0.475000X-0.250000X-0.475000X0.250000X-0.475000X0*%
%ADD18RoundRect,0.150000X0.587500X0.150000X-0.587500X0.150000X-0.587500X-0.150000X0.587500X-0.150000X0*%
%ADD19RoundRect,0.150000X0.150000X0.425000X-0.150000X0.425000X-0.150000X-0.425000X0.150000X-0.425000X0*%
%ADD20RoundRect,0.075000X0.075000X0.500000X-0.075000X0.500000X-0.075000X-0.500000X0.075000X-0.500000X0*%
%ADD21O,1.000000X2.100000*%
%ADD22O,1.000000X1.800000*%
%ADD23FreePoly0,90.000000*%
%ADD24RoundRect,0.750000X2.250000X-1.750000X2.250000X1.750000X-2.250000X1.750000X-2.250000X-1.750000X0*%
%ADD25RoundRect,0.218750X-0.218750X-0.256250X0.218750X-0.256250X0.218750X0.256250X-0.218750X0.256250X0*%
%ADD26RoundRect,0.157500X-0.157500X-0.222500X0.157500X-0.222500X0.157500X0.222500X-0.157500X0.222500X0*%
%ADD27RoundRect,0.125000X-0.600000X-0.125000X0.600000X-0.125000X0.600000X0.125000X-0.600000X0.125000X0*%
%ADD28RoundRect,0.225000X0.225000X0.250000X-0.225000X0.250000X-0.225000X-0.250000X0.225000X-0.250000X0*%
%ADD29RoundRect,0.218750X-0.381250X0.218750X-0.381250X-0.218750X0.381250X-0.218750X0.381250X0.218750X0*%
%ADD30FreePoly0,270.000000*%
%ADD31RoundRect,0.750000X-2.250000X1.750000X-2.250000X-1.750000X2.250000X-1.750000X2.250000X1.750000X0*%
%ADD32RoundRect,0.225000X-0.250000X0.225000X-0.250000X-0.225000X0.250000X-0.225000X0.250000X0.225000X0*%
%ADD33RoundRect,0.250000X0.362500X1.425000X-0.362500X1.425000X-0.362500X-1.425000X0.362500X-1.425000X0*%
%ADD34R,2.900000X5.400000*%
%ADD35RoundRect,0.250000X0.650000X-1.000000X0.650000X1.000000X-0.650000X1.000000X-0.650000X-1.000000X0*%
%ADD36RoundRect,0.218750X0.381250X-0.218750X0.381250X0.218750X-0.381250X0.218750X-0.381250X-0.218750X0*%
%ADD37RoundRect,0.150000X-0.150000X0.512500X-0.150000X-0.512500X0.150000X-0.512500X0.150000X0.512500X0*%
%ADD38RoundRect,0.250000X0.900000X-1.000000X0.900000X1.000000X-0.900000X1.000000X-0.900000X-1.000000X0*%
%ADD39RoundRect,0.225000X-0.225000X-0.250000X0.225000X-0.250000X0.225000X0.250000X-0.225000X0.250000X0*%
%ADD40RoundRect,0.250000X1.000000X0.650000X-1.000000X0.650000X-1.000000X-0.650000X1.000000X-0.650000X0*%
%ADD41RoundRect,0.218750X0.218750X0.256250X-0.218750X0.256250X-0.218750X-0.256250X0.218750X-0.256250X0*%
%ADD42RoundRect,0.250000X1.425000X-0.362500X1.425000X0.362500X-1.425000X0.362500X-1.425000X-0.362500X0*%
%ADD43RoundRect,0.250000X-0.875000X-0.650000X0.875000X-0.650000X0.875000X0.650000X-0.875000X0.650000X0*%
%ADD44RoundRect,0.250000X0.450000X-0.262500X0.450000X0.262500X-0.450000X0.262500X-0.450000X-0.262500X0*%
%ADD45R,0.700000X1.925000*%
%ADD46R,1.925000X0.700000*%
%ADD47FreePoly0,180.000000*%
%ADD48RoundRect,0.750000X1.750000X2.250000X-1.750000X2.250000X-1.750000X-2.250000X1.750000X-2.250000X0*%
%ADD49RoundRect,0.250000X-0.900000X1.000000X-0.900000X-1.000000X0.900000X-1.000000X0.900000X1.000000X0*%
%ADD50RoundRect,0.150000X-0.512500X-0.150000X0.512500X-0.150000X0.512500X0.150000X-0.512500X0.150000X0*%
%ADD51RoundRect,0.218750X-0.256250X0.218750X-0.256250X-0.218750X0.256250X-0.218750X0.256250X0.218750X0*%
%ADD52RoundRect,0.100000X-0.637500X-0.100000X0.637500X-0.100000X0.637500X0.100000X-0.637500X0.100000X0*%
%ADD53RoundRect,0.375000X-0.625000X-0.375000X0.625000X-0.375000X0.625000X0.375000X-0.625000X0.375000X0*%
%ADD54RoundRect,0.500000X-0.500000X-1.400000X0.500000X-1.400000X0.500000X1.400000X-0.500000X1.400000X0*%
G04 APERTURE END LIST*
D10*
%TO.C,C41*%
X178500000Y-105700000D03*
X178500000Y-103800000D03*
%TD*%
D11*
%TO.C,R3*%
X181250000Y-79100000D03*
X181250000Y-81000000D03*
%TD*%
D12*
%TO.C,U1*%
X192150000Y-81750000D03*
X191050000Y-81750000D03*
X189950000Y-81750000D03*
X192150000Y-82850000D03*
X191050000Y-82850000D03*
X189950000Y-82850000D03*
X192150000Y-83950000D03*
X191050000Y-83950000D03*
X189950000Y-83950000D03*
D13*
X197250000Y-73140000D03*
X195750000Y-73140000D03*
X194250000Y-73140000D03*
X192750000Y-73140000D03*
X191250000Y-73140000D03*
X189750000Y-73140000D03*
X188250000Y-73140000D03*
X186750000Y-73140000D03*
X185250000Y-73140000D03*
X185250000Y-90640000D03*
X186750000Y-90640000D03*
X188250000Y-90640000D03*
X189750000Y-90640000D03*
X191250000Y-90640000D03*
X192750000Y-90640000D03*
X194250000Y-90640000D03*
X195750000Y-90640000D03*
X197250000Y-90640000D03*
%TD*%
D14*
%TO.C,C34*%
X160790000Y-140447500D03*
X160790000Y-138897500D03*
%TD*%
D15*
%TO.C,R11*%
X149350000Y-85000000D03*
X151250000Y-85000000D03*
%TD*%
D11*
%TO.C,C5*%
X164750000Y-85500000D03*
X164750000Y-87400000D03*
%TD*%
D16*
%TO.C,U3*%
X141345000Y-120275000D03*
X142615000Y-120275000D03*
X143885000Y-120275000D03*
X145155000Y-120275000D03*
X145155000Y-115325000D03*
X143885000Y-115325000D03*
X142615000Y-115325000D03*
X141345000Y-115325000D03*
%TD*%
D17*
%TO.C,C38*%
X151700000Y-133000000D03*
X149800000Y-133000000D03*
%TD*%
D18*
%TO.C,Q1*%
X158187500Y-105700000D03*
X158187500Y-103800000D03*
X156312500Y-104750000D03*
%TD*%
D10*
%TO.C,C29*%
X146500000Y-145847500D03*
X146500000Y-143947500D03*
%TD*%
D19*
%TO.C,J6*%
X149650000Y-62430000D03*
X148850000Y-62430000D03*
D20*
X147700000Y-62430000D03*
X146700000Y-62430000D03*
X146200000Y-62430000D03*
X145200000Y-62430000D03*
D19*
X144050000Y-62430000D03*
X143250000Y-62430000D03*
X143250000Y-62430000D03*
X144050000Y-62430000D03*
D20*
X144700000Y-62430000D03*
X145700000Y-62430000D03*
X147200000Y-62430000D03*
X148200000Y-62430000D03*
D19*
X148850000Y-62430000D03*
X149650000Y-62430000D03*
D21*
X150770000Y-61855000D03*
D22*
X150770000Y-57675000D03*
D21*
X142130000Y-61855000D03*
D22*
X142130000Y-57675000D03*
%TD*%
D23*
%TO.C,J4*%
X190750000Y-115750000D03*
D24*
X190750000Y-109250000D03*
%TD*%
D25*
%TO.C,L6*%
X152215000Y-144822500D03*
X153790000Y-144822500D03*
%TD*%
D11*
%TO.C,R23*%
X150750000Y-67750000D03*
X150750000Y-69650000D03*
%TD*%
D26*
%TO.C,U4*%
X172845000Y-116885000D03*
X172845000Y-117825000D03*
X173625000Y-116885000D03*
X173625000Y-117825000D03*
D27*
X171085000Y-116380000D03*
X171085000Y-117030000D03*
X171085000Y-117680000D03*
X171085000Y-118330000D03*
X175385000Y-118330000D03*
X175385000Y-117680000D03*
X175385000Y-117030000D03*
X175385000Y-116380000D03*
%TD*%
D15*
%TO.C,C21*%
X108112500Y-98700000D03*
X110012500Y-98700000D03*
%TD*%
D11*
%TO.C,R19*%
X137750000Y-115100000D03*
X137750000Y-117000000D03*
%TD*%
%TO.C,C30*%
X138500000Y-129300000D03*
X138500000Y-131200000D03*
%TD*%
D15*
%TO.C,C22*%
X104550000Y-106000000D03*
X106450000Y-106000000D03*
%TD*%
D28*
%TO.C,C42*%
X136525000Y-146750000D03*
X134975000Y-146750000D03*
%TD*%
D29*
%TO.C,L4*%
X157790000Y-141360000D03*
X157790000Y-143485000D03*
%TD*%
D17*
%TO.C,C14*%
X140900000Y-112000000D03*
X139000000Y-112000000D03*
%TD*%
D30*
%TO.C,J9*%
X114000000Y-139250000D03*
D31*
X114000000Y-145750000D03*
%TD*%
D32*
%TO.C,C43*%
X138500000Y-148725000D03*
X138500000Y-150275000D03*
%TD*%
D15*
%TO.C,C15*%
X164800000Y-113250000D03*
X166700000Y-113250000D03*
%TD*%
D11*
%TO.C,C17*%
X135500000Y-118850000D03*
X135500000Y-120750000D03*
%TD*%
D17*
%TO.C,R31*%
X144750000Y-130697500D03*
X142850000Y-130697500D03*
%TD*%
%TO.C,R8*%
X159200000Y-81400000D03*
X157300000Y-81400000D03*
%TD*%
D15*
%TO.C,C28*%
X130390000Y-145250000D03*
X132290000Y-145250000D03*
%TD*%
D33*
%TO.C,R24*%
X115712500Y-90500000D03*
X109787500Y-90500000D03*
%TD*%
D34*
%TO.C,L2*%
X113412500Y-102950000D03*
X123312500Y-102950000D03*
%TD*%
D15*
%TO.C,C8*%
X164800000Y-75000000D03*
X166700000Y-75000000D03*
%TD*%
D17*
%TO.C,R9*%
X151150000Y-81500000D03*
X149250000Y-81500000D03*
%TD*%
D35*
%TO.C,D7*%
X154250000Y-62500000D03*
X154250000Y-58500000D03*
%TD*%
D10*
%TO.C,R29*%
X164540000Y-140797500D03*
X164540000Y-138897500D03*
%TD*%
D34*
%TO.C,L1*%
X117200000Y-79750000D03*
X107300000Y-79750000D03*
%TD*%
D36*
%TO.C,L3*%
X153790000Y-143072500D03*
X153790000Y-140947500D03*
%TD*%
D32*
%TO.C,C40*%
X138500000Y-145700000D03*
X138500000Y-147250000D03*
%TD*%
D15*
%TO.C,R6*%
X172250000Y-64250000D03*
X174150000Y-64250000D03*
%TD*%
D11*
%TO.C,C7*%
X154750000Y-84050000D03*
X154750000Y-85950000D03*
%TD*%
D10*
%TO.C,C2*%
X196750000Y-68700000D03*
X196750000Y-66800000D03*
%TD*%
D37*
%TO.C,U5*%
X147400000Y-66225000D03*
X146450000Y-66225000D03*
X145500000Y-66225000D03*
X145500000Y-68500000D03*
X146450000Y-68500000D03*
X147400000Y-68500000D03*
%TD*%
D17*
%TO.C,R10*%
X159250000Y-84000000D03*
X157350000Y-84000000D03*
%TD*%
%TO.C,C11*%
X159250000Y-79000000D03*
X157350000Y-79000000D03*
%TD*%
D11*
%TO.C,C12*%
X166000000Y-117800000D03*
X166000000Y-119700000D03*
%TD*%
%TO.C,R30*%
X146540000Y-132997500D03*
X146540000Y-134897500D03*
%TD*%
D15*
%TO.C,R7*%
X172250000Y-60750000D03*
X174150000Y-60750000D03*
%TD*%
D11*
%TO.C,C13*%
X163500000Y-117800000D03*
X163500000Y-119700000D03*
%TD*%
D38*
%TO.C,D4*%
X133000000Y-79900000D03*
X133000000Y-75600000D03*
%TD*%
D11*
%TO.C,C1*%
X191500000Y-64550000D03*
X191500000Y-66450000D03*
%TD*%
D10*
%TO.C,C10*%
X173500000Y-79700000D03*
X173500000Y-77800000D03*
%TD*%
D39*
%TO.C,C31*%
X152290000Y-139197500D03*
X153840000Y-139197500D03*
%TD*%
D10*
%TO.C,C20*%
X119750000Y-90450000D03*
X119750000Y-88550000D03*
%TD*%
%TO.C,R25*%
X119400000Y-120500000D03*
X119400000Y-118600000D03*
%TD*%
D15*
%TO.C,R2*%
X188850000Y-96750000D03*
X190750000Y-96750000D03*
%TD*%
D40*
%TO.C,D5*%
X131750000Y-70250000D03*
X127750000Y-70250000D03*
%TD*%
D41*
%TO.C,L5*%
X124290000Y-139197500D03*
X122715000Y-139197500D03*
%TD*%
D38*
%TO.C,D6*%
X124000000Y-79650000D03*
X124000000Y-75350000D03*
%TD*%
D35*
%TO.C,D2*%
X183250000Y-114000000D03*
X183250000Y-110000000D03*
%TD*%
D10*
%TO.C,C19*%
X115750000Y-71450000D03*
X115750000Y-69550000D03*
%TD*%
D42*
%TO.C,R21*%
X130500000Y-88962500D03*
X130500000Y-83037500D03*
%TD*%
D43*
%TO.C,Y1*%
X127150000Y-152150000D03*
X132000000Y-152150000D03*
X132000000Y-148750000D03*
X127150000Y-148750000D03*
%TD*%
D10*
%TO.C,C25*%
X106900000Y-117950000D03*
X106900000Y-116050000D03*
%TD*%
D11*
%TO.C,R1*%
X189250000Y-64550000D03*
X189250000Y-66450000D03*
%TD*%
D17*
%TO.C,C24*%
X110262500Y-106000000D03*
X108362500Y-106000000D03*
%TD*%
D11*
%TO.C,C4*%
X175750000Y-75900000D03*
X175750000Y-77800000D03*
%TD*%
D17*
%TO.C,R15*%
X162150000Y-105750000D03*
X160250000Y-105750000D03*
%TD*%
D44*
%TO.C,R13*%
X175000000Y-105662500D03*
X175000000Y-103837500D03*
%TD*%
D28*
%TO.C,C39*%
X140065000Y-151750000D03*
X138515000Y-151750000D03*
%TD*%
D10*
%TO.C,R14*%
X147500000Y-120450000D03*
X147500000Y-118550000D03*
%TD*%
D11*
%TO.C,R4*%
X191250000Y-69300000D03*
X191250000Y-71200000D03*
%TD*%
D15*
%TO.C,R16*%
X169050000Y-113250000D03*
X170950000Y-113250000D03*
%TD*%
D45*
%TO.C,U8*%
X138540000Y-135145000D03*
X137270000Y-135145000D03*
X136000000Y-135145000D03*
D46*
X134487500Y-136657500D03*
X134487500Y-137927500D03*
X134487500Y-139197500D03*
X134487500Y-140467500D03*
X134487500Y-141737500D03*
D45*
X136000000Y-143250000D03*
X137270000Y-143250000D03*
X138540000Y-143250000D03*
X139810000Y-143250000D03*
X141080000Y-143250000D03*
D46*
X142592500Y-141737500D03*
X142592500Y-140467500D03*
X142592500Y-139197500D03*
X142592500Y-137927500D03*
X142592500Y-136657500D03*
D45*
X141080000Y-135145000D03*
X139810000Y-135145000D03*
%TD*%
D25*
%TO.C,L8*%
X134965000Y-151750000D03*
X136540000Y-151750000D03*
%TD*%
D17*
%TO.C,R18*%
X152200000Y-115250000D03*
X150300000Y-115250000D03*
%TD*%
D39*
%TO.C,C33*%
X152240000Y-146572500D03*
X153790000Y-146572500D03*
%TD*%
D30*
%TO.C,J8*%
X170300000Y-139500000D03*
D31*
X170300000Y-146000000D03*
%TD*%
D10*
%TO.C,R22*%
X138500000Y-65900000D03*
X138500000Y-64000000D03*
%TD*%
%TO.C,R28*%
X146540000Y-139197500D03*
X146540000Y-137297500D03*
%TD*%
D11*
%TO.C,C16*%
X171000000Y-120050000D03*
X171000000Y-121950000D03*
%TD*%
%TO.C,C37*%
X124500000Y-146850000D03*
X124500000Y-148750000D03*
%TD*%
D10*
%TO.C,C36*%
X131540000Y-142397500D03*
X131540000Y-140497500D03*
%TD*%
D47*
%TO.C,J7*%
X129750000Y-61750000D03*
D48*
X124000000Y-61750000D03*
X118250000Y-61750000D03*
%TD*%
D23*
%TO.C,J2*%
X190750000Y-130750000D03*
D24*
X190750000Y-124250000D03*
%TD*%
D49*
%TO.C,D3*%
X140750000Y-95350000D03*
X140750000Y-99650000D03*
%TD*%
D10*
%TO.C,R5*%
X181250000Y-84900000D03*
X181250000Y-83000000D03*
%TD*%
D50*
%TO.C,D1*%
X161725000Y-95050000D03*
X161725000Y-96000000D03*
X161725000Y-96950000D03*
X164000000Y-96950000D03*
X164000000Y-96000000D03*
X164000000Y-95050000D03*
%TD*%
%TO.C,U6*%
X106975000Y-102000000D03*
X106975000Y-102950000D03*
X106975000Y-103900000D03*
X109250000Y-103900000D03*
X109250000Y-102950000D03*
X109250000Y-102000000D03*
%TD*%
D51*
%TO.C,L7*%
X162540000Y-138897500D03*
X162540000Y-140472500D03*
%TD*%
D10*
%TO.C,C26*%
X123650000Y-117950000D03*
X123650000Y-116050000D03*
%TD*%
%TO.C,C18*%
X127250000Y-88950000D03*
X127250000Y-87050000D03*
%TD*%
D15*
%TO.C,R27*%
X148590000Y-139197500D03*
X150490000Y-139197500D03*
%TD*%
%TO.C,R33*%
X140590000Y-148850000D03*
X142490000Y-148850000D03*
%TD*%
D10*
%TO.C,R26*%
X115900000Y-116200000D03*
X115900000Y-114300000D03*
%TD*%
D17*
%TO.C,C23*%
X110250000Y-109750000D03*
X108350000Y-109750000D03*
%TD*%
D10*
%TO.C,R17*%
X148250000Y-115200000D03*
X148250000Y-113300000D03*
%TD*%
%TO.C,C6*%
X154750000Y-81500000D03*
X154750000Y-79600000D03*
%TD*%
%TO.C,C35*%
X127790000Y-141097500D03*
X127790000Y-139197500D03*
%TD*%
%TO.C,C9*%
X145250000Y-91750000D03*
X145250000Y-89850000D03*
%TD*%
D52*
%TO.C,U2*%
X163387500Y-78075000D03*
X163387500Y-78725000D03*
X163387500Y-79375000D03*
X163387500Y-80025000D03*
X163387500Y-80675000D03*
X163387500Y-81325000D03*
X163387500Y-81975000D03*
X163387500Y-82625000D03*
X163387500Y-83275000D03*
X163387500Y-83925000D03*
X169112500Y-83925000D03*
X169112500Y-83275000D03*
X169112500Y-82625000D03*
X169112500Y-81975000D03*
X169112500Y-81325000D03*
X169112500Y-80675000D03*
X169112500Y-80025000D03*
X169112500Y-79375000D03*
X169112500Y-78725000D03*
X169112500Y-78075000D03*
%TD*%
D17*
%TO.C,C3*%
X161750000Y-76500000D03*
X159850000Y-76500000D03*
%TD*%
%TO.C,R32*%
X148400000Y-130697500D03*
X146500000Y-130697500D03*
%TD*%
D53*
%TO.C,U7*%
X109750000Y-119950000D03*
X109750000Y-122250000D03*
X109750000Y-124550000D03*
D54*
X116050000Y-122250000D03*
%TD*%
D11*
%TO.C,R20*%
X137750000Y-118850000D03*
X137750000Y-120750000D03*
%TD*%
D44*
%TO.C,R12*%
X178500000Y-110325000D03*
X178500000Y-108500000D03*
%TD*%
D10*
%TO.C,C27*%
X119400000Y-116200000D03*
X119400000Y-114300000D03*
%TD*%
D32*
%TO.C,C32*%
X157790000Y-145147500D03*
X157790000Y-146697500D03*
%TD*%
D40*
%TO.C,D8*%
X123500000Y-70500000D03*
X119500000Y-70500000D03*
%TD*%
M02*
