%TF.GenerationSoftware,KiCad,Pcbnew,9.0.7*%
%TF.CreationDate,2026-02-10T21:18:12+01:00*%
%TF.ProjectId,Tesla_sextant_BT,5465736c-615f-4736-9578-74616e745f42,2.1*%
%TF.SameCoordinates,Original*%
%TF.FileFunction,Copper,L3,Inr*%
%TF.FilePolarity,Positive*%
%FSLAX46Y46*%
G04 Gerber Fmt 4.6, Leading zero omitted, Abs format (unit mm)*
G04 Created by KiCad (PCBNEW 9.0.7) date 2026-02-10 21:18:12*
%MOMM*%
%LPD*%
G01*
G04 APERTURE LIST*
%TA.AperFunction,HeatsinkPad*%
%ADD10C,0.600000*%
%TD*%
%TA.AperFunction,ComponentPad*%
%ADD11C,4.700000*%
%TD*%
%TA.AperFunction,HeatsinkPad*%
%ADD12O,1.000000X2.100000*%
%TD*%
%TA.AperFunction,HeatsinkPad*%
%ADD13O,1.000000X1.800000*%
%TD*%
%TA.AperFunction,ComponentPad*%
%ADD14R,1.350000X1.350000*%
%TD*%
%TA.AperFunction,ComponentPad*%
%ADD15C,1.350000*%
%TD*%
%TA.AperFunction,ComponentPad*%
%ADD16R,1.501140X1.501140*%
%TD*%
%TA.AperFunction,ComponentPad*%
%ADD17C,1.501140*%
%TD*%
%TA.AperFunction,ViaPad*%
%ADD18C,0.600000*%
%TD*%
%TA.AperFunction,ViaPad*%
%ADD19C,1.000000*%
%TD*%
%TA.AperFunction,ViaPad*%
%ADD20C,0.800000*%
%TD*%
G04 APERTURE END LIST*
D10*
%TO.N,GND*%
%TO.C,U1*%
X191600000Y-81750000D03*
X190500000Y-81750000D03*
X192150000Y-82300000D03*
X191050000Y-82300000D03*
X189950000Y-82300000D03*
X191600000Y-82850000D03*
X190500000Y-82850000D03*
X192150000Y-83400000D03*
X191050000Y-83400000D03*
X189950000Y-83400000D03*
X191600000Y-83950000D03*
X190500000Y-83950000D03*
%TD*%
D11*
%TO.N,GND*%
%TO.C,H3*%
X105500000Y-62000000D03*
%TD*%
D12*
%TO.N,unconnected-(J6-SHIELD-PadS1)_1*%
%TO.C,J6*%
X150770000Y-61855000D03*
D13*
%TO.N,unconnected-(J6-SHIELD-PadS1)_2*%
X150770000Y-57675000D03*
D12*
%TO.N,unconnected-(J6-SHIELD-PadS1)*%
X142130000Y-61855000D03*
D13*
%TO.N,unconnected-(J6-SHIELD-PadS1)_3*%
X142130000Y-57675000D03*
%TD*%
D10*
%TO.N,N/C*%
%TO.C,U4*%
X172750000Y-116710000D03*
X172750000Y-118000000D03*
X173720000Y-116710000D03*
X173720000Y-118000000D03*
%TD*%
D14*
%TO.N,+3.3V*%
%TO.C,J3*%
X177800000Y-58500000D03*
D15*
%TO.N,/I2C.SDA*%
X177800000Y-60500000D03*
%TO.N,/I2C.SCL*%
X177800000Y-62500000D03*
%TO.N,/I2C.INT*%
X177800000Y-64500000D03*
%TO.N,GND*%
X177800000Y-66500000D03*
%TD*%
D11*
%TO.N,GND*%
%TO.C,H4*%
X166500000Y-62000000D03*
%TD*%
%TO.N,GND*%
%TO.C,H1*%
X105500000Y-148000000D03*
%TD*%
%TO.N,GND*%
%TO.C,H2*%
X191500000Y-148000000D03*
%TD*%
D14*
%TO.N,+3.3V*%
%TO.C,J1*%
X169750000Y-92250000D03*
D15*
%TO.N,/RADIO.LOW*%
X169750000Y-94250000D03*
%TO.N,/RADIO.HI*%
X169750000Y-96250000D03*
%TO.N,/RADIO.VOL*%
X169750000Y-98250000D03*
%TO.N,GND*%
X169750000Y-100250000D03*
%TD*%
D16*
%TO.N,+5V*%
%TO.C,K1*%
X145250000Y-95300000D03*
D17*
%TO.N,/DAC_AMP/REL_PULLD*%
X145250000Y-108000000D03*
%TO.N,/DAC_AMP/AUD_BUFF*%
X152870000Y-108000000D03*
%TO.N,/DAC_AMP/AUD_RADIO*%
X152870000Y-100380000D03*
%TO.N,/DAC_AMP/AUD_DAC_MIX*%
X152870000Y-95300000D03*
%TD*%
D18*
%TO.N,GND*%
X146500000Y-64750000D03*
X191250000Y-63000000D03*
X191500000Y-93000000D03*
D19*
X126250000Y-116000000D03*
D20*
X155790000Y-148697500D03*
X188450000Y-104300000D03*
X112750000Y-127750000D03*
D18*
X174750000Y-62500000D03*
D19*
X106250000Y-97750000D03*
D18*
X140500000Y-139250000D03*
D20*
X129750000Y-137000000D03*
X161000000Y-127750000D03*
X163250000Y-127750000D03*
D18*
X193000000Y-66250000D03*
D20*
X110250000Y-127750000D03*
D18*
X118000000Y-147500000D03*
D20*
X162290000Y-136947500D03*
D19*
X107000000Y-114250000D03*
D20*
X165750000Y-127750000D03*
D18*
X140750000Y-62250000D03*
X161750000Y-78750000D03*
D19*
X166750000Y-67000000D03*
D18*
X129750000Y-147000000D03*
X166750000Y-83750000D03*
X137500000Y-141500000D03*
X141250000Y-74250000D03*
D20*
X160040000Y-136947500D03*
D18*
X157000000Y-69750000D03*
X176500000Y-74000000D03*
X173750000Y-66000000D03*
X156500000Y-59250000D03*
X131250000Y-147000000D03*
X193000000Y-67250000D03*
X143000000Y-145750000D03*
X166750000Y-82500000D03*
D20*
X155790000Y-143447500D03*
D19*
X119750000Y-67750000D03*
D18*
X150000000Y-130750000D03*
D20*
X190950000Y-104300000D03*
D18*
X139750000Y-145750000D03*
D20*
X129540000Y-140447500D03*
D18*
X187000000Y-75750000D03*
X142500000Y-143250000D03*
D20*
X105500000Y-127750000D03*
X139000000Y-127750000D03*
X146250000Y-127750000D03*
D18*
X167500000Y-79000000D03*
X117750000Y-114250000D03*
X159750000Y-74750000D03*
X136750000Y-138000000D03*
X142500000Y-63750000D03*
D19*
X121500000Y-115750000D03*
D18*
X166750000Y-80000000D03*
D20*
X151040000Y-136947500D03*
D18*
X136500000Y-70000000D03*
D20*
X120790000Y-137000000D03*
D18*
X193000000Y-65250000D03*
D19*
X113250000Y-113750000D03*
D18*
X193000000Y-70500000D03*
X156500000Y-57250000D03*
D20*
X182000000Y-136750000D03*
D18*
X165000000Y-81250000D03*
D19*
X125750000Y-72750000D03*
D20*
X118500000Y-137000000D03*
X141500000Y-127750000D03*
X176000000Y-130750000D03*
D18*
X169000000Y-87000000D03*
D19*
X120500000Y-104250000D03*
D18*
X151250000Y-63750000D03*
X175250000Y-90500000D03*
D19*
X128750000Y-67750000D03*
D20*
X155750000Y-145000000D03*
D19*
X107500000Y-107750000D03*
X100750000Y-115000000D03*
D20*
X148790000Y-141447500D03*
X131750000Y-127750000D03*
D18*
X177600000Y-117400000D03*
X185400000Y-125800000D03*
X139750000Y-147250000D03*
D19*
X175800000Y-79600000D03*
D18*
X196750000Y-65250000D03*
D20*
X174500000Y-129250000D03*
X155790000Y-139197500D03*
D18*
X159750000Y-86000000D03*
X136750000Y-139250000D03*
X145000000Y-77750000D03*
X183500000Y-60500000D03*
X118000000Y-146000000D03*
D20*
X193000000Y-120000000D03*
X111500000Y-126000000D03*
X183250000Y-145500000D03*
D19*
X106250000Y-100250000D03*
D20*
X183250000Y-143000000D03*
D18*
X180750000Y-60000000D03*
D20*
X143750000Y-127750000D03*
X144540000Y-140697500D03*
D18*
X150250000Y-63750000D03*
D20*
X129500000Y-127750000D03*
D19*
X119500000Y-112500000D03*
D20*
X188250000Y-120000000D03*
X179000000Y-133750000D03*
X129540000Y-142697500D03*
D18*
X194000000Y-71500000D03*
D20*
X127000000Y-127750000D03*
X113250000Y-126000000D03*
X122250000Y-127750000D03*
D19*
X114250000Y-61750000D03*
X106500000Y-109750000D03*
D18*
X118000000Y-144250000D03*
D20*
X183250000Y-148000000D03*
D19*
X110750000Y-100500000D03*
D20*
X125540000Y-141447500D03*
X153790000Y-148697500D03*
X103000000Y-127750000D03*
D18*
X178600000Y-118600000D03*
D20*
X177500000Y-132250000D03*
X112500000Y-125000000D03*
D18*
X126500000Y-147000000D03*
X136750000Y-136750000D03*
X115500000Y-111750000D03*
X182750000Y-66000000D03*
D20*
X183250000Y-138250000D03*
D18*
X168000000Y-90250000D03*
X181250000Y-70750000D03*
X136750000Y-133250000D03*
D19*
X128750000Y-72750000D03*
D20*
X136750000Y-127750000D03*
D18*
X154750000Y-78000000D03*
D20*
X120790000Y-141447500D03*
X107750000Y-127750000D03*
X148790000Y-136947500D03*
D19*
X119750000Y-73000000D03*
D20*
X156000000Y-127750000D03*
D19*
X116250000Y-102500000D03*
D18*
X140500000Y-138000000D03*
D19*
X100750000Y-98500000D03*
D18*
X141500000Y-63750000D03*
X135250000Y-145500000D03*
D19*
X120500000Y-100750000D03*
D18*
X173500000Y-72250000D03*
D19*
X120500000Y-102500000D03*
D18*
X161750000Y-84250000D03*
D20*
X151250000Y-127750000D03*
X117250000Y-127750000D03*
D18*
X141500000Y-146000000D03*
D20*
X157790000Y-136947500D03*
X123250000Y-137000000D03*
X115000000Y-127750000D03*
X118500000Y-141447500D03*
D18*
X132500000Y-147000000D03*
D20*
X155790000Y-141447500D03*
X100500000Y-127750000D03*
X124750000Y-127750000D03*
D18*
X152250000Y-59250000D03*
X138500000Y-141500000D03*
D20*
X132000000Y-136947500D03*
D18*
X147250000Y-83500000D03*
D20*
X134250000Y-127750000D03*
D19*
X116250000Y-100750000D03*
D20*
X155790000Y-136947500D03*
D18*
X160250000Y-96500000D03*
X140500000Y-136750000D03*
D20*
X158040000Y-148697500D03*
X127790000Y-137000000D03*
X153500000Y-127750000D03*
D18*
X140500000Y-133250000D03*
D20*
X180500000Y-135250000D03*
X183250000Y-152750000D03*
D18*
X152000000Y-63250000D03*
D20*
X193200000Y-104300000D03*
X152040000Y-143197500D03*
X168250000Y-127750000D03*
X153540000Y-136947500D03*
D18*
X156750000Y-86000000D03*
D19*
X109000000Y-116500000D03*
D18*
X181400000Y-121600000D03*
X133750000Y-145750000D03*
X183500000Y-87500000D03*
D20*
X173000000Y-127750000D03*
D18*
X151750000Y-87750000D03*
D20*
X151040000Y-141447500D03*
D18*
X128250000Y-147000000D03*
X162750000Y-87250000D03*
X152500000Y-83250000D03*
D20*
X123250000Y-141447500D03*
D19*
X125750000Y-67750000D03*
D20*
X125540000Y-137000000D03*
D18*
X140750000Y-63250000D03*
D20*
X111750000Y-124000000D03*
X146500000Y-141250000D03*
D18*
X166750000Y-81250000D03*
D19*
X116250000Y-104250000D03*
D20*
X170750000Y-127750000D03*
X119750000Y-127750000D03*
X158500000Y-127750000D03*
X183250000Y-150250000D03*
X164290000Y-136947500D03*
D18*
X151750000Y-131000000D03*
D20*
X148750000Y-127750000D03*
X151040000Y-145447500D03*
D18*
X195500000Y-65500000D03*
D20*
X183250000Y-140500000D03*
D19*
X100500000Y-78750000D03*
D18*
%TO.N,+3.3V*%
X163000000Y-76500000D03*
X171250000Y-80500000D03*
X187250000Y-96500000D03*
D19*
X126000000Y-104250000D03*
D18*
X181250000Y-86750000D03*
X105750000Y-102000000D03*
D19*
X170750000Y-76500000D03*
X166750000Y-85750000D03*
X126000000Y-100750000D03*
X126000000Y-102500000D03*
D18*
X111250000Y-107250000D03*
D19*
X119500000Y-109750000D03*
X122250000Y-148750000D03*
%TO.N,+5V*%
X124500000Y-90250000D03*
X122750000Y-90250000D03*
X124500000Y-86000000D03*
D18*
X140250000Y-110250000D03*
X143750000Y-68250000D03*
D19*
X122750000Y-86000000D03*
X158500000Y-69000000D03*
D18*
X160250000Y-117750000D03*
D19*
X135500000Y-95250000D03*
%TO.N,+10V*%
X121000000Y-125000000D03*
X118500000Y-125000000D03*
X123500000Y-125000000D03*
D18*
X138540000Y-132250000D03*
X134250000Y-143250000D03*
X140250000Y-141250000D03*
D20*
%TO.N,VUSB*%
X140500000Y-65100000D03*
X151750000Y-65500000D03*
D18*
%TO.N,/I2C.INT*%
X178500000Y-88500000D03*
X174000000Y-74250000D03*
%TO.N,/DAC_AMP/AUD_BUFF*%
X150250000Y-118500000D03*
%TO.N,/AUDIO_SEL*%
X186750000Y-93000000D03*
X164000000Y-105750000D03*
%TO.N,/USB_ESP_D-*%
X187681846Y-86550474D03*
X147100000Y-70750000D03*
%TO.N,/AMP_SD*%
X188250000Y-93000000D03*
X168750000Y-116250000D03*
%TO.N,/USB_ESP_D+*%
X145800000Y-70750000D03*
X186550474Y-87681846D03*
%TO.N,/DAC_AMP/DIV_2.5V*%
X139250000Y-119000000D03*
X142615000Y-121750000D03*
%TD*%
%TA.AperFunction,Conductor*%
%TO.N,GND*%
G36*
X194203032Y-55500649D02*
G01*
X194267797Y-55503830D01*
X194566338Y-55518497D01*
X194578440Y-55519689D01*
X194935230Y-55572613D01*
X194947140Y-55574982D01*
X195297046Y-55662629D01*
X195308663Y-55666154D01*
X195648275Y-55787669D01*
X195659497Y-55792317D01*
X195985582Y-55946543D01*
X195996290Y-55952267D01*
X196305659Y-56137696D01*
X196315777Y-56144456D01*
X196605488Y-56359321D01*
X196614894Y-56367041D01*
X196882146Y-56609264D01*
X196890735Y-56617853D01*
X197056808Y-56801086D01*
X197132958Y-56885105D01*
X197140678Y-56894511D01*
X197355543Y-57184222D01*
X197362303Y-57194340D01*
X197526001Y-57467454D01*
X197547725Y-57503697D01*
X197553460Y-57514425D01*
X197585737Y-57582669D01*
X197707679Y-57840495D01*
X197712334Y-57851734D01*
X197827479Y-58173543D01*
X197833840Y-58191319D01*
X197837373Y-58202964D01*
X197925014Y-58552846D01*
X197927388Y-58564782D01*
X197980309Y-58921555D01*
X197981502Y-58933664D01*
X197999351Y-59296967D01*
X197999500Y-59303052D01*
X197999500Y-72666000D01*
X197979815Y-72733039D01*
X197927011Y-72778794D01*
X197875500Y-72790000D01*
X195000000Y-72790000D01*
X195000000Y-84626000D01*
X194980315Y-84693039D01*
X194927511Y-84738794D01*
X194876000Y-84750000D01*
X193000000Y-84750000D01*
X193000000Y-89000000D01*
X194876000Y-89000000D01*
X194943039Y-89019685D01*
X194988794Y-89072489D01*
X195000000Y-89124000D01*
X195000000Y-90890000D01*
X197879395Y-90980495D01*
X197945783Y-91002276D01*
X197989857Y-91056491D01*
X197999500Y-91104434D01*
X197999500Y-150696947D01*
X197999351Y-150703032D01*
X197981502Y-151066335D01*
X197980309Y-151078444D01*
X197927388Y-151435217D01*
X197925014Y-151447153D01*
X197837373Y-151797035D01*
X197833840Y-151808680D01*
X197712335Y-152148262D01*
X197707679Y-152159504D01*
X197553462Y-152485570D01*
X197547725Y-152496302D01*
X197362303Y-152805659D01*
X197355543Y-152815777D01*
X197140678Y-153105488D01*
X197132958Y-153114894D01*
X196890743Y-153382138D01*
X196882138Y-153390743D01*
X196614894Y-153632958D01*
X196605488Y-153640678D01*
X196315777Y-153855543D01*
X196305659Y-153862303D01*
X195996302Y-154047725D01*
X195985570Y-154053462D01*
X195659504Y-154207679D01*
X195648262Y-154212335D01*
X195308680Y-154333840D01*
X195297035Y-154337373D01*
X194947153Y-154425014D01*
X194935217Y-154427388D01*
X194578444Y-154480309D01*
X194566335Y-154481502D01*
X194203033Y-154499351D01*
X194196948Y-154499500D01*
X102803052Y-154499500D01*
X102796967Y-154499351D01*
X102433664Y-154481502D01*
X102421555Y-154480309D01*
X102064782Y-154427388D01*
X102052846Y-154425014D01*
X101702964Y-154337373D01*
X101691323Y-154333841D01*
X101351734Y-154212334D01*
X101340495Y-154207679D01*
X101014429Y-154053462D01*
X101003702Y-154047727D01*
X100694340Y-153862303D01*
X100684222Y-153855543D01*
X100394511Y-153640678D01*
X100385105Y-153632958D01*
X100342479Y-153594324D01*
X100117853Y-153390735D01*
X100109264Y-153382146D01*
X99867041Y-153114894D01*
X99859321Y-153105488D01*
X99644456Y-152815777D01*
X99637696Y-152805659D01*
X99477760Y-152538822D01*
X99452267Y-152496290D01*
X99446543Y-152485582D01*
X99292317Y-152159497D01*
X99287669Y-152148275D01*
X99166154Y-151808663D01*
X99162629Y-151797046D01*
X99074982Y-151447140D01*
X99072613Y-151435230D01*
X99019689Y-151078440D01*
X99018497Y-151066334D01*
X99000649Y-150703031D01*
X99000500Y-150696947D01*
X99000500Y-148848543D01*
X121249499Y-148848543D01*
X121287947Y-149041829D01*
X121287950Y-149041839D01*
X121363364Y-149223907D01*
X121363371Y-149223920D01*
X121472860Y-149387781D01*
X121472863Y-149387785D01*
X121612214Y-149527136D01*
X121612218Y-149527139D01*
X121776079Y-149636628D01*
X121776092Y-149636635D01*
X121958160Y-149712049D01*
X121958165Y-149712051D01*
X121958169Y-149712051D01*
X121958170Y-149712052D01*
X122151456Y-149750500D01*
X122151459Y-149750500D01*
X122348543Y-149750500D01*
X122478582Y-149724632D01*
X122541835Y-149712051D01*
X122723914Y-149636632D01*
X122887782Y-149527139D01*
X123027139Y-149387782D01*
X123136632Y-149223914D01*
X123212051Y-149041835D01*
X123250500Y-148848541D01*
X123250500Y-148651459D01*
X123250500Y-148651456D01*
X123212052Y-148458170D01*
X123212051Y-148458169D01*
X123212051Y-148458165D01*
X123212049Y-148458160D01*
X123136635Y-148276092D01*
X123136628Y-148276079D01*
X123027139Y-148112218D01*
X123027136Y-148112214D01*
X122887785Y-147972863D01*
X122887781Y-147972860D01*
X122723920Y-147863371D01*
X122723907Y-147863364D01*
X122541839Y-147787950D01*
X122541829Y-147787947D01*
X122348543Y-147749500D01*
X122348541Y-147749500D01*
X122151459Y-147749500D01*
X122151457Y-147749500D01*
X121958170Y-147787947D01*
X121958160Y-147787950D01*
X121776092Y-147863364D01*
X121776079Y-147863371D01*
X121612218Y-147972860D01*
X121612214Y-147972863D01*
X121472863Y-148112214D01*
X121472860Y-148112218D01*
X121363371Y-148276079D01*
X121363364Y-148276092D01*
X121287950Y-148458160D01*
X121287947Y-148458170D01*
X121249500Y-148651456D01*
X121249500Y-148651459D01*
X121249500Y-148848541D01*
X121249500Y-148848543D01*
X121249499Y-148848543D01*
X99000500Y-148848543D01*
X99000500Y-143171153D01*
X133449500Y-143171153D01*
X133449500Y-143328846D01*
X133480261Y-143483489D01*
X133480264Y-143483501D01*
X133540602Y-143629172D01*
X133540609Y-143629185D01*
X133628210Y-143760288D01*
X133628213Y-143760292D01*
X133739707Y-143871786D01*
X133739711Y-143871789D01*
X133870814Y-143959390D01*
X133870827Y-143959397D01*
X134016498Y-144019735D01*
X134016503Y-144019737D01*
X134171153Y-144050499D01*
X134171156Y-144050500D01*
X134171158Y-144050500D01*
X134328844Y-144050500D01*
X134328845Y-144050499D01*
X134483497Y-144019737D01*
X134629179Y-143959394D01*
X134760289Y-143871789D01*
X134871789Y-143760289D01*
X134959394Y-143629179D01*
X135019737Y-143483497D01*
X135050500Y-143328842D01*
X135050500Y-143171158D01*
X135050500Y-143171155D01*
X135050499Y-143171153D01*
X135019738Y-143016510D01*
X135019737Y-143016503D01*
X135019735Y-143016498D01*
X134959397Y-142870827D01*
X134959390Y-142870814D01*
X134871789Y-142739711D01*
X134871786Y-142739707D01*
X134760292Y-142628213D01*
X134760288Y-142628210D01*
X134629185Y-142540609D01*
X134629172Y-142540602D01*
X134483501Y-142480264D01*
X134483489Y-142480261D01*
X134328845Y-142449500D01*
X134328842Y-142449500D01*
X134171158Y-142449500D01*
X134171155Y-142449500D01*
X134016510Y-142480261D01*
X134016498Y-142480264D01*
X133870827Y-142540602D01*
X133870814Y-142540609D01*
X133739711Y-142628210D01*
X133739707Y-142628213D01*
X133628213Y-142739707D01*
X133628210Y-142739711D01*
X133540609Y-142870814D01*
X133540602Y-142870827D01*
X133480264Y-143016498D01*
X133480261Y-143016510D01*
X133449500Y-143171153D01*
X99000500Y-143171153D01*
X99000500Y-141171153D01*
X139449500Y-141171153D01*
X139449500Y-141328846D01*
X139480261Y-141483489D01*
X139480264Y-141483501D01*
X139540602Y-141629172D01*
X139540609Y-141629185D01*
X139628210Y-141760288D01*
X139628213Y-141760292D01*
X139739707Y-141871786D01*
X139739711Y-141871789D01*
X139870814Y-141959390D01*
X139870827Y-141959397D01*
X140016498Y-142019735D01*
X140016503Y-142019737D01*
X140171153Y-142050499D01*
X140171156Y-142050500D01*
X140171158Y-142050500D01*
X140328844Y-142050500D01*
X140328845Y-142050499D01*
X140483497Y-142019737D01*
X140629179Y-141959394D01*
X140760289Y-141871789D01*
X140871789Y-141760289D01*
X140959394Y-141629179D01*
X141019737Y-141483497D01*
X141050500Y-141328842D01*
X141050500Y-141171158D01*
X141050500Y-141171155D01*
X141050499Y-141171153D01*
X141019738Y-141016510D01*
X141019737Y-141016503D01*
X141019735Y-141016498D01*
X140959397Y-140870827D01*
X140959390Y-140870814D01*
X140871789Y-140739711D01*
X140871786Y-140739707D01*
X140760292Y-140628213D01*
X140760288Y-140628210D01*
X140629185Y-140540609D01*
X140629172Y-140540602D01*
X140483501Y-140480264D01*
X140483489Y-140480261D01*
X140328845Y-140449500D01*
X140328842Y-140449500D01*
X140171158Y-140449500D01*
X140171155Y-140449500D01*
X140016510Y-140480261D01*
X140016498Y-140480264D01*
X139870827Y-140540602D01*
X139870814Y-140540609D01*
X139739711Y-140628210D01*
X139739707Y-140628213D01*
X139628213Y-140739707D01*
X139628210Y-140739711D01*
X139540609Y-140870814D01*
X139540602Y-140870827D01*
X139480264Y-141016498D01*
X139480261Y-141016510D01*
X139449500Y-141171153D01*
X99000500Y-141171153D01*
X99000500Y-132171153D01*
X137739500Y-132171153D01*
X137739500Y-132328846D01*
X137770261Y-132483489D01*
X137770264Y-132483501D01*
X137830602Y-132629172D01*
X137830609Y-132629185D01*
X137918210Y-132760288D01*
X137918213Y-132760292D01*
X138029707Y-132871786D01*
X138029711Y-132871789D01*
X138160814Y-132959390D01*
X138160827Y-132959397D01*
X138306498Y-133019735D01*
X138306503Y-133019737D01*
X138461153Y-133050499D01*
X138461156Y-133050500D01*
X138461158Y-133050500D01*
X138618844Y-133050500D01*
X138618845Y-133050499D01*
X138773497Y-133019737D01*
X138919179Y-132959394D01*
X139050289Y-132871789D01*
X139161789Y-132760289D01*
X139249394Y-132629179D01*
X139309737Y-132483497D01*
X139340500Y-132328842D01*
X139340500Y-132171158D01*
X139340500Y-132171155D01*
X139340499Y-132171153D01*
X139309738Y-132016510D01*
X139309737Y-132016503D01*
X139309735Y-132016498D01*
X139249397Y-131870827D01*
X139249390Y-131870814D01*
X139161789Y-131739711D01*
X139161786Y-131739707D01*
X139050292Y-131628213D01*
X139050288Y-131628210D01*
X138919185Y-131540609D01*
X138919172Y-131540602D01*
X138773501Y-131480264D01*
X138773489Y-131480261D01*
X138618845Y-131449500D01*
X138618842Y-131449500D01*
X138461158Y-131449500D01*
X138461155Y-131449500D01*
X138306510Y-131480261D01*
X138306498Y-131480264D01*
X138160827Y-131540602D01*
X138160814Y-131540609D01*
X138029711Y-131628210D01*
X138029707Y-131628213D01*
X137918213Y-131739707D01*
X137918210Y-131739711D01*
X137830609Y-131870814D01*
X137830602Y-131870827D01*
X137770264Y-132016498D01*
X137770261Y-132016510D01*
X137739500Y-132171153D01*
X99000500Y-132171153D01*
X99000500Y-125098543D01*
X117499499Y-125098543D01*
X117537947Y-125291829D01*
X117537950Y-125291839D01*
X117613364Y-125473907D01*
X117613371Y-125473920D01*
X117722860Y-125637781D01*
X117722863Y-125637785D01*
X117862214Y-125777136D01*
X117862218Y-125777139D01*
X118026079Y-125886628D01*
X118026092Y-125886635D01*
X118208160Y-125962049D01*
X118208165Y-125962051D01*
X118208169Y-125962051D01*
X118208170Y-125962052D01*
X118401456Y-126000500D01*
X118401459Y-126000500D01*
X118598543Y-126000500D01*
X118728582Y-125974632D01*
X118791835Y-125962051D01*
X118973914Y-125886632D01*
X119137782Y-125777139D01*
X119277139Y-125637782D01*
X119386632Y-125473914D01*
X119462051Y-125291835D01*
X119500500Y-125098543D01*
X119999499Y-125098543D01*
X120037947Y-125291829D01*
X120037950Y-125291839D01*
X120113364Y-125473907D01*
X120113371Y-125473920D01*
X120222860Y-125637781D01*
X120222863Y-125637785D01*
X120362214Y-125777136D01*
X120362218Y-125777139D01*
X120526079Y-125886628D01*
X120526092Y-125886635D01*
X120708160Y-125962049D01*
X120708165Y-125962051D01*
X120708169Y-125962051D01*
X120708170Y-125962052D01*
X120901456Y-126000500D01*
X120901459Y-126000500D01*
X121098543Y-126000500D01*
X121228582Y-125974632D01*
X121291835Y-125962051D01*
X121473914Y-125886632D01*
X121637782Y-125777139D01*
X121777139Y-125637782D01*
X121886632Y-125473914D01*
X121962051Y-125291835D01*
X122000500Y-125098543D01*
X122499499Y-125098543D01*
X122537947Y-125291829D01*
X122537950Y-125291839D01*
X122613364Y-125473907D01*
X122613371Y-125473920D01*
X122722860Y-125637781D01*
X122722863Y-125637785D01*
X122862214Y-125777136D01*
X122862218Y-125777139D01*
X123026079Y-125886628D01*
X123026092Y-125886635D01*
X123208160Y-125962049D01*
X123208165Y-125962051D01*
X123208169Y-125962051D01*
X123208170Y-125962052D01*
X123401456Y-126000500D01*
X123401459Y-126000500D01*
X123598543Y-126000500D01*
X123728582Y-125974632D01*
X123791835Y-125962051D01*
X123973914Y-125886632D01*
X124137782Y-125777139D01*
X124277139Y-125637782D01*
X124386632Y-125473914D01*
X124462051Y-125291835D01*
X124500500Y-125098541D01*
X124500500Y-124901459D01*
X124500500Y-124901456D01*
X124462052Y-124708170D01*
X124462051Y-124708169D01*
X124462051Y-124708165D01*
X124462049Y-124708160D01*
X124386635Y-124526092D01*
X124386628Y-124526079D01*
X124277139Y-124362218D01*
X124277136Y-124362214D01*
X124137785Y-124222863D01*
X124137781Y-124222860D01*
X123973920Y-124113371D01*
X123973907Y-124113364D01*
X123791839Y-124037950D01*
X123791829Y-124037947D01*
X123598543Y-123999500D01*
X123598541Y-123999500D01*
X123401459Y-123999500D01*
X123401457Y-123999500D01*
X123208170Y-124037947D01*
X123208160Y-124037950D01*
X123026092Y-124113364D01*
X123026079Y-124113371D01*
X122862218Y-124222860D01*
X122862214Y-124222863D01*
X122722863Y-124362214D01*
X122722860Y-124362218D01*
X122613371Y-124526079D01*
X122613364Y-124526092D01*
X122537950Y-124708160D01*
X122537947Y-124708170D01*
X122499500Y-124901456D01*
X122499500Y-124901459D01*
X122499500Y-125098541D01*
X122499500Y-125098543D01*
X122499499Y-125098543D01*
X122000500Y-125098543D01*
X122000500Y-125098541D01*
X122000500Y-124901459D01*
X122000500Y-124901456D01*
X121962052Y-124708170D01*
X121962051Y-124708169D01*
X121962051Y-124708165D01*
X121962049Y-124708160D01*
X121886635Y-124526092D01*
X121886628Y-124526079D01*
X121777139Y-124362218D01*
X121777136Y-124362214D01*
X121637785Y-124222863D01*
X121637781Y-124222860D01*
X121473920Y-124113371D01*
X121473907Y-124113364D01*
X121291839Y-124037950D01*
X121291829Y-124037947D01*
X121098543Y-123999500D01*
X121098541Y-123999500D01*
X120901459Y-123999500D01*
X120901457Y-123999500D01*
X120708170Y-124037947D01*
X120708160Y-124037950D01*
X120526092Y-124113364D01*
X120526079Y-124113371D01*
X120362218Y-124222860D01*
X120362214Y-124222863D01*
X120222863Y-124362214D01*
X120222860Y-124362218D01*
X120113371Y-124526079D01*
X120113364Y-124526092D01*
X120037950Y-124708160D01*
X120037947Y-124708170D01*
X119999500Y-124901456D01*
X119999500Y-124901459D01*
X119999500Y-125098541D01*
X119999500Y-125098543D01*
X119999499Y-125098543D01*
X119500500Y-125098543D01*
X119500500Y-125098541D01*
X119500500Y-124901459D01*
X119500500Y-124901456D01*
X119462052Y-124708170D01*
X119462051Y-124708169D01*
X119462051Y-124708165D01*
X119462049Y-124708160D01*
X119386635Y-124526092D01*
X119386628Y-124526079D01*
X119277139Y-124362218D01*
X119277136Y-124362214D01*
X119137785Y-124222863D01*
X119137781Y-124222860D01*
X118973920Y-124113371D01*
X118973907Y-124113364D01*
X118791839Y-124037950D01*
X118791829Y-124037947D01*
X118598543Y-123999500D01*
X118598541Y-123999500D01*
X118401459Y-123999500D01*
X118401457Y-123999500D01*
X118208170Y-124037947D01*
X118208160Y-124037950D01*
X118026092Y-124113364D01*
X118026079Y-124113371D01*
X117862218Y-124222860D01*
X117862214Y-124222863D01*
X117722863Y-124362214D01*
X117722860Y-124362218D01*
X117613371Y-124526079D01*
X117613364Y-124526092D01*
X117537950Y-124708160D01*
X117537947Y-124708170D01*
X117499500Y-124901456D01*
X117499500Y-124901459D01*
X117499500Y-125098541D01*
X117499500Y-125098543D01*
X117499499Y-125098543D01*
X99000500Y-125098543D01*
X99000500Y-121671153D01*
X141814500Y-121671153D01*
X141814500Y-121828846D01*
X141845261Y-121983489D01*
X141845264Y-121983501D01*
X141905602Y-122129172D01*
X141905609Y-122129185D01*
X141993210Y-122260288D01*
X141993213Y-122260292D01*
X142104707Y-122371786D01*
X142104711Y-122371789D01*
X142235814Y-122459390D01*
X142235827Y-122459397D01*
X142381498Y-122519735D01*
X142381503Y-122519737D01*
X142536153Y-122550499D01*
X142536156Y-122550500D01*
X142536158Y-122550500D01*
X142693844Y-122550500D01*
X142693845Y-122550499D01*
X142848497Y-122519737D01*
X142994179Y-122459394D01*
X143125289Y-122371789D01*
X143236789Y-122260289D01*
X143324394Y-122129179D01*
X143384737Y-121983497D01*
X143415500Y-121828842D01*
X143415500Y-121671158D01*
X143415500Y-121671155D01*
X143415499Y-121671153D01*
X143384738Y-121516510D01*
X143384737Y-121516503D01*
X143384735Y-121516498D01*
X143324397Y-121370827D01*
X143324390Y-121370814D01*
X143236789Y-121239711D01*
X143236786Y-121239707D01*
X143125292Y-121128213D01*
X143125288Y-121128210D01*
X142994185Y-121040609D01*
X142994172Y-121040602D01*
X142848501Y-120980264D01*
X142848489Y-120980261D01*
X142693845Y-120949500D01*
X142693842Y-120949500D01*
X142536158Y-120949500D01*
X142536155Y-120949500D01*
X142381510Y-120980261D01*
X142381498Y-120980264D01*
X142235827Y-121040602D01*
X142235814Y-121040609D01*
X142104711Y-121128210D01*
X142104707Y-121128213D01*
X141993213Y-121239707D01*
X141993210Y-121239711D01*
X141905609Y-121370814D01*
X141905602Y-121370827D01*
X141845264Y-121516498D01*
X141845261Y-121516510D01*
X141814500Y-121671153D01*
X99000500Y-121671153D01*
X99000500Y-118921153D01*
X138449500Y-118921153D01*
X138449500Y-119078846D01*
X138480261Y-119233489D01*
X138480264Y-119233501D01*
X138540602Y-119379172D01*
X138540609Y-119379185D01*
X138628210Y-119510288D01*
X138628213Y-119510292D01*
X138739707Y-119621786D01*
X138739711Y-119621789D01*
X138870814Y-119709390D01*
X138870827Y-119709397D01*
X139016498Y-119769735D01*
X139016503Y-119769737D01*
X139171153Y-119800499D01*
X139171156Y-119800500D01*
X139171158Y-119800500D01*
X139328844Y-119800500D01*
X139328845Y-119800499D01*
X139483497Y-119769737D01*
X139629179Y-119709394D01*
X139760289Y-119621789D01*
X139871789Y-119510289D01*
X139959394Y-119379179D01*
X140019737Y-119233497D01*
X140050500Y-119078842D01*
X140050500Y-118921158D01*
X140050500Y-118921155D01*
X140050499Y-118921153D01*
X140019738Y-118766510D01*
X140019737Y-118766503D01*
X139959794Y-118621786D01*
X139959397Y-118620827D01*
X139959390Y-118620814D01*
X139871790Y-118489712D01*
X139871784Y-118489705D01*
X139803232Y-118421153D01*
X149449500Y-118421153D01*
X149449500Y-118578846D01*
X149480261Y-118733489D01*
X149480264Y-118733501D01*
X149540602Y-118879172D01*
X149540609Y-118879185D01*
X149628210Y-119010288D01*
X149628213Y-119010292D01*
X149739707Y-119121786D01*
X149739711Y-119121789D01*
X149870814Y-119209390D01*
X149870827Y-119209397D01*
X150016498Y-119269735D01*
X150016503Y-119269737D01*
X150171153Y-119300499D01*
X150171156Y-119300500D01*
X150171158Y-119300500D01*
X150328844Y-119300500D01*
X150328845Y-119300499D01*
X150483497Y-119269737D01*
X150629179Y-119209394D01*
X150760289Y-119121789D01*
X150871789Y-119010289D01*
X150959394Y-118879179D01*
X151019737Y-118733497D01*
X151050500Y-118578842D01*
X151050500Y-118421158D01*
X151050500Y-118421155D01*
X151050499Y-118421153D01*
X151024531Y-118290606D01*
X151019737Y-118266503D01*
X151006062Y-118233489D01*
X150959397Y-118120827D01*
X150959390Y-118120814D01*
X150871789Y-117989711D01*
X150871786Y-117989707D01*
X150760292Y-117878213D01*
X150760288Y-117878210D01*
X150629185Y-117790609D01*
X150629173Y-117790602D01*
X150602674Y-117779627D01*
X150483501Y-117730264D01*
X150483489Y-117730261D01*
X150328845Y-117699500D01*
X150328842Y-117699500D01*
X150171158Y-117699500D01*
X150171155Y-117699500D01*
X150016510Y-117730261D01*
X150016498Y-117730264D01*
X149870827Y-117790602D01*
X149870814Y-117790609D01*
X149739711Y-117878210D01*
X149739707Y-117878213D01*
X149628213Y-117989707D01*
X149628210Y-117989711D01*
X149540609Y-118120814D01*
X149540602Y-118120827D01*
X149480264Y-118266498D01*
X149480261Y-118266510D01*
X149449500Y-118421153D01*
X139803232Y-118421153D01*
X139760292Y-118378213D01*
X139760288Y-118378210D01*
X139629185Y-118290609D01*
X139629172Y-118290602D01*
X139483501Y-118230264D01*
X139483489Y-118230261D01*
X139328845Y-118199500D01*
X139328842Y-118199500D01*
X139171158Y-118199500D01*
X139171155Y-118199500D01*
X139016510Y-118230261D01*
X139016498Y-118230264D01*
X138870827Y-118290602D01*
X138870814Y-118290609D01*
X138739711Y-118378210D01*
X138739707Y-118378213D01*
X138628213Y-118489707D01*
X138628210Y-118489711D01*
X138540609Y-118620814D01*
X138540602Y-118620827D01*
X138480264Y-118766498D01*
X138480261Y-118766510D01*
X138449500Y-118921153D01*
X99000500Y-118921153D01*
X99000500Y-117671153D01*
X159449500Y-117671153D01*
X159449500Y-117828846D01*
X159480261Y-117983489D01*
X159480264Y-117983501D01*
X159540602Y-118129172D01*
X159540609Y-118129185D01*
X159628210Y-118260288D01*
X159628213Y-118260292D01*
X159739707Y-118371786D01*
X159739711Y-118371789D01*
X159870814Y-118459390D01*
X159870827Y-118459397D01*
X160016498Y-118519735D01*
X160016503Y-118519737D01*
X160171153Y-118550499D01*
X160171156Y-118550500D01*
X160171158Y-118550500D01*
X160328844Y-118550500D01*
X160328845Y-118550499D01*
X160483497Y-118519737D01*
X160629179Y-118459394D01*
X160760289Y-118371789D01*
X160871789Y-118260289D01*
X160959394Y-118129179D01*
X160962854Y-118120827D01*
X161017163Y-117989711D01*
X161019737Y-117983497D01*
X161050500Y-117828842D01*
X161050500Y-117671158D01*
X161050500Y-117671155D01*
X161050499Y-117671153D01*
X161019738Y-117516510D01*
X161019737Y-117516503D01*
X161019735Y-117516498D01*
X160959397Y-117370827D01*
X160959390Y-117370814D01*
X160871789Y-117239711D01*
X160871786Y-117239707D01*
X160760292Y-117128213D01*
X160760288Y-117128210D01*
X160629185Y-117040609D01*
X160629172Y-117040602D01*
X160483501Y-116980264D01*
X160483489Y-116980261D01*
X160328845Y-116949500D01*
X160328842Y-116949500D01*
X160171158Y-116949500D01*
X160171155Y-116949500D01*
X160016510Y-116980261D01*
X160016498Y-116980264D01*
X159870827Y-117040602D01*
X159870814Y-117040609D01*
X159739711Y-117128210D01*
X159739707Y-117128213D01*
X159628213Y-117239707D01*
X159628210Y-117239711D01*
X159540609Y-117370814D01*
X159540602Y-117370827D01*
X159480264Y-117516498D01*
X159480261Y-117516510D01*
X159449500Y-117671153D01*
X99000500Y-117671153D01*
X99000500Y-116171153D01*
X167949500Y-116171153D01*
X167949500Y-116328846D01*
X167980261Y-116483489D01*
X167980264Y-116483501D01*
X168040602Y-116629172D01*
X168040609Y-116629185D01*
X168128210Y-116760288D01*
X168128213Y-116760292D01*
X168239707Y-116871786D01*
X168239711Y-116871789D01*
X168370814Y-116959390D01*
X168370827Y-116959397D01*
X168516498Y-117019735D01*
X168516503Y-117019737D01*
X168671153Y-117050499D01*
X168671156Y-117050500D01*
X168671158Y-117050500D01*
X168828844Y-117050500D01*
X168828845Y-117050499D01*
X168983497Y-117019737D01*
X169129179Y-116959394D01*
X169260289Y-116871789D01*
X169371789Y-116760289D01*
X169458075Y-116631153D01*
X171949500Y-116631153D01*
X171949500Y-116788846D01*
X171980261Y-116943489D01*
X171980264Y-116943501D01*
X172040602Y-117089172D01*
X172040609Y-117089185D01*
X172128210Y-117220288D01*
X172128213Y-117220292D01*
X172175240Y-117267319D01*
X172208725Y-117328642D01*
X172203741Y-117398334D01*
X172175240Y-117442681D01*
X172128213Y-117489707D01*
X172128210Y-117489711D01*
X172040609Y-117620814D01*
X172040602Y-117620827D01*
X171980264Y-117766498D01*
X171980261Y-117766510D01*
X171949500Y-117921153D01*
X171949500Y-118078846D01*
X171980261Y-118233489D01*
X171980264Y-118233501D01*
X172040602Y-118379172D01*
X172040609Y-118379185D01*
X172128210Y-118510288D01*
X172128213Y-118510292D01*
X172239707Y-118621786D01*
X172239711Y-118621789D01*
X172370814Y-118709390D01*
X172370827Y-118709397D01*
X172508683Y-118766498D01*
X172516503Y-118769737D01*
X172671153Y-118800499D01*
X172671156Y-118800500D01*
X172671158Y-118800500D01*
X172828844Y-118800500D01*
X172828845Y-118800499D01*
X172983497Y-118769737D01*
X173129179Y-118709394D01*
X173166109Y-118684717D01*
X173232785Y-118663839D01*
X173300165Y-118682323D01*
X173303868Y-118684702D01*
X173340821Y-118709394D01*
X173340823Y-118709395D01*
X173340825Y-118709396D01*
X173478683Y-118766498D01*
X173486503Y-118769737D01*
X173641153Y-118800499D01*
X173641156Y-118800500D01*
X173641158Y-118800500D01*
X173798844Y-118800500D01*
X173798845Y-118800499D01*
X173953497Y-118769737D01*
X174099179Y-118709394D01*
X174230289Y-118621789D01*
X174341789Y-118510289D01*
X174429394Y-118379179D01*
X174489737Y-118233497D01*
X174520500Y-118078842D01*
X174520500Y-117921158D01*
X174520500Y-117921155D01*
X174520499Y-117921153D01*
X174494531Y-117790606D01*
X174489737Y-117766503D01*
X174489735Y-117766498D01*
X174429397Y-117620827D01*
X174429390Y-117620814D01*
X174341789Y-117489711D01*
X174341786Y-117489707D01*
X174294760Y-117442681D01*
X174261275Y-117381358D01*
X174266259Y-117311666D01*
X174294760Y-117267319D01*
X174341786Y-117220292D01*
X174341789Y-117220289D01*
X174429394Y-117089179D01*
X174489737Y-116943497D01*
X174520500Y-116788842D01*
X174520500Y-116631158D01*
X174520500Y-116631155D01*
X174520499Y-116631153D01*
X174491128Y-116483497D01*
X174489737Y-116476503D01*
X174489735Y-116476498D01*
X174429397Y-116330827D01*
X174429390Y-116330814D01*
X174341789Y-116199711D01*
X174341786Y-116199707D01*
X174230292Y-116088213D01*
X174230288Y-116088210D01*
X174099185Y-116000609D01*
X174099172Y-116000602D01*
X173953501Y-115940264D01*
X173953489Y-115940261D01*
X173798845Y-115909500D01*
X173798842Y-115909500D01*
X173641158Y-115909500D01*
X173641155Y-115909500D01*
X173486510Y-115940261D01*
X173486498Y-115940264D01*
X173340828Y-116000602D01*
X173340812Y-116000611D01*
X173303889Y-116025282D01*
X173237212Y-116046159D01*
X173169832Y-116027674D01*
X173166111Y-116025282D01*
X173129187Y-116000611D01*
X173129183Y-116000609D01*
X173129179Y-116000606D01*
X173129175Y-116000604D01*
X173129171Y-116000602D01*
X172983501Y-115940264D01*
X172983489Y-115940261D01*
X172828845Y-115909500D01*
X172828842Y-115909500D01*
X172671158Y-115909500D01*
X172671155Y-115909500D01*
X172516510Y-115940261D01*
X172516498Y-115940264D01*
X172370827Y-116000602D01*
X172370814Y-116000609D01*
X172239711Y-116088210D01*
X172239707Y-116088213D01*
X172128213Y-116199707D01*
X172128210Y-116199711D01*
X172040609Y-116330814D01*
X172040602Y-116330827D01*
X171980264Y-116476498D01*
X171980261Y-116476510D01*
X171949500Y-116631153D01*
X169458075Y-116631153D01*
X169459394Y-116629179D01*
X169459395Y-116629176D01*
X169459397Y-116629173D01*
X169480753Y-116577614D01*
X169519735Y-116483501D01*
X169519737Y-116483497D01*
X169550500Y-116328842D01*
X169550500Y-116171158D01*
X169550500Y-116171155D01*
X169550499Y-116171153D01*
X169534001Y-116088213D01*
X169519737Y-116016503D01*
X169488157Y-115940261D01*
X169459397Y-115870827D01*
X169459390Y-115870814D01*
X169371789Y-115739711D01*
X169371786Y-115739707D01*
X169260292Y-115628213D01*
X169260288Y-115628210D01*
X169129185Y-115540609D01*
X169129172Y-115540602D01*
X168983501Y-115480264D01*
X168983489Y-115480261D01*
X168828845Y-115449500D01*
X168828842Y-115449500D01*
X168671158Y-115449500D01*
X168671155Y-115449500D01*
X168516510Y-115480261D01*
X168516498Y-115480264D01*
X168370827Y-115540602D01*
X168370814Y-115540609D01*
X168239711Y-115628210D01*
X168239707Y-115628213D01*
X168128213Y-115739707D01*
X168128210Y-115739711D01*
X168040609Y-115870814D01*
X168040602Y-115870827D01*
X167980264Y-116016498D01*
X167980261Y-116016510D01*
X167949500Y-116171153D01*
X99000500Y-116171153D01*
X99000500Y-109848543D01*
X118499499Y-109848543D01*
X118537947Y-110041829D01*
X118537950Y-110041839D01*
X118613364Y-110223907D01*
X118613371Y-110223920D01*
X118722860Y-110387781D01*
X118722863Y-110387785D01*
X118862214Y-110527136D01*
X118862218Y-110527139D01*
X119026079Y-110636628D01*
X119026092Y-110636635D01*
X119208160Y-110712049D01*
X119208165Y-110712051D01*
X119208169Y-110712051D01*
X119208170Y-110712052D01*
X119401456Y-110750500D01*
X119401459Y-110750500D01*
X119598543Y-110750500D01*
X119728582Y-110724632D01*
X119791835Y-110712051D01*
X119973914Y-110636632D01*
X120137782Y-110527139D01*
X120277139Y-110387782D01*
X120386632Y-110223914D01*
X120408484Y-110171158D01*
X120408486Y-110171153D01*
X139449500Y-110171153D01*
X139449500Y-110328846D01*
X139480261Y-110483489D01*
X139480264Y-110483501D01*
X139540602Y-110629172D01*
X139540609Y-110629185D01*
X139628210Y-110760288D01*
X139628213Y-110760292D01*
X139739707Y-110871786D01*
X139739711Y-110871789D01*
X139870814Y-110959390D01*
X139870827Y-110959397D01*
X140016498Y-111019735D01*
X140016503Y-111019737D01*
X140171153Y-111050499D01*
X140171156Y-111050500D01*
X140171158Y-111050500D01*
X140328844Y-111050500D01*
X140328845Y-111050499D01*
X140483497Y-111019737D01*
X140629179Y-110959394D01*
X140760289Y-110871789D01*
X140871789Y-110760289D01*
X140959394Y-110629179D01*
X141019737Y-110483497D01*
X141050500Y-110328842D01*
X141050500Y-110171158D01*
X141050500Y-110171155D01*
X141050499Y-110171153D01*
X141039849Y-110117614D01*
X141019737Y-110016503D01*
X141019735Y-110016498D01*
X140959397Y-109870827D01*
X140959390Y-109870814D01*
X140871789Y-109739711D01*
X140871786Y-109739707D01*
X140760292Y-109628213D01*
X140760288Y-109628210D01*
X140629185Y-109540609D01*
X140629172Y-109540602D01*
X140483501Y-109480264D01*
X140483489Y-109480261D01*
X140328845Y-109449500D01*
X140328842Y-109449500D01*
X140171158Y-109449500D01*
X140171155Y-109449500D01*
X140016510Y-109480261D01*
X140016498Y-109480264D01*
X139870827Y-109540602D01*
X139870814Y-109540609D01*
X139739711Y-109628210D01*
X139739707Y-109628213D01*
X139628213Y-109739707D01*
X139628210Y-109739711D01*
X139540609Y-109870814D01*
X139540602Y-109870827D01*
X139480264Y-110016498D01*
X139480261Y-110016510D01*
X139449500Y-110171153D01*
X120408486Y-110171153D01*
X120430663Y-110117614D01*
X120462049Y-110041839D01*
X120462051Y-110041835D01*
X120496067Y-109870827D01*
X120500500Y-109848543D01*
X120500500Y-109651456D01*
X120462052Y-109458170D01*
X120462051Y-109458169D01*
X120462051Y-109458165D01*
X120458462Y-109449500D01*
X120386635Y-109276092D01*
X120386628Y-109276079D01*
X120277139Y-109112218D01*
X120277136Y-109112214D01*
X120137785Y-108972863D01*
X120137781Y-108972860D01*
X119973920Y-108863371D01*
X119973907Y-108863364D01*
X119791839Y-108787950D01*
X119791829Y-108787947D01*
X119598543Y-108749500D01*
X119598541Y-108749500D01*
X119401459Y-108749500D01*
X119401457Y-108749500D01*
X119208170Y-108787947D01*
X119208160Y-108787950D01*
X119026092Y-108863364D01*
X119026079Y-108863371D01*
X118862218Y-108972860D01*
X118862214Y-108972863D01*
X118722863Y-109112214D01*
X118722860Y-109112218D01*
X118613371Y-109276079D01*
X118613364Y-109276092D01*
X118537950Y-109458160D01*
X118537947Y-109458170D01*
X118499500Y-109651456D01*
X118499500Y-109651459D01*
X118499500Y-109848541D01*
X118499500Y-109848543D01*
X118499499Y-109848543D01*
X99000500Y-109848543D01*
X99000500Y-107171153D01*
X110449500Y-107171153D01*
X110449500Y-107328846D01*
X110480261Y-107483489D01*
X110480264Y-107483501D01*
X110540602Y-107629172D01*
X110540609Y-107629185D01*
X110628210Y-107760288D01*
X110628213Y-107760292D01*
X110739707Y-107871786D01*
X110739711Y-107871789D01*
X110870814Y-107959390D01*
X110870827Y-107959397D01*
X111016498Y-108019735D01*
X111016503Y-108019737D01*
X111171153Y-108050499D01*
X111171156Y-108050500D01*
X111171158Y-108050500D01*
X111328844Y-108050500D01*
X111328845Y-108050499D01*
X111483497Y-108019737D01*
X111629179Y-107959394D01*
X111715774Y-107901533D01*
X143998930Y-107901533D01*
X143998930Y-108098466D01*
X144029734Y-108292956D01*
X144090589Y-108480246D01*
X144179991Y-108655707D01*
X144295731Y-108815011D01*
X144295735Y-108815016D01*
X144434983Y-108954264D01*
X144434988Y-108954268D01*
X144573942Y-109055223D01*
X144594296Y-109070011D01*
X144769756Y-109159412D01*
X144957040Y-109220265D01*
X145029977Y-109231816D01*
X145151534Y-109251070D01*
X145151539Y-109251070D01*
X145348466Y-109251070D01*
X145456516Y-109233956D01*
X145542960Y-109220265D01*
X145730244Y-109159412D01*
X145905704Y-109070011D01*
X146065018Y-108954263D01*
X146204263Y-108815018D01*
X146320011Y-108655704D01*
X146409412Y-108480244D01*
X146470265Y-108292960D01*
X146483956Y-108206516D01*
X146501070Y-108098466D01*
X146501070Y-107901533D01*
X151618930Y-107901533D01*
X151618930Y-108098466D01*
X151649734Y-108292956D01*
X151710589Y-108480246D01*
X151799991Y-108655707D01*
X151915731Y-108815011D01*
X151915735Y-108815016D01*
X152054983Y-108954264D01*
X152054988Y-108954268D01*
X152193942Y-109055223D01*
X152214296Y-109070011D01*
X152389756Y-109159412D01*
X152577040Y-109220265D01*
X152649977Y-109231816D01*
X152771534Y-109251070D01*
X152771539Y-109251070D01*
X152968466Y-109251070D01*
X153076516Y-109233956D01*
X153162960Y-109220265D01*
X153350244Y-109159412D01*
X153525704Y-109070011D01*
X153685018Y-108954263D01*
X153824263Y-108815018D01*
X153940011Y-108655704D01*
X154029412Y-108480244D01*
X154090265Y-108292960D01*
X154103956Y-108206516D01*
X154121070Y-108098466D01*
X154121070Y-107901533D01*
X154090265Y-107707043D01*
X154090265Y-107707040D01*
X154029412Y-107519756D01*
X153940011Y-107344296D01*
X153925223Y-107323942D01*
X153824268Y-107184988D01*
X153824264Y-107184983D01*
X153685016Y-107045735D01*
X153685011Y-107045731D01*
X153525707Y-106929991D01*
X153525706Y-106929990D01*
X153525704Y-106929989D01*
X153350244Y-106840588D01*
X153162960Y-106779735D01*
X153162958Y-106779734D01*
X153162956Y-106779734D01*
X152968466Y-106748930D01*
X152968461Y-106748930D01*
X152771539Y-106748930D01*
X152771534Y-106748930D01*
X152577043Y-106779734D01*
X152389753Y-106840589D01*
X152214292Y-106929991D01*
X152054988Y-107045731D01*
X152054983Y-107045735D01*
X151915735Y-107184983D01*
X151915731Y-107184988D01*
X151799991Y-107344292D01*
X151710589Y-107519753D01*
X151649734Y-107707043D01*
X151618930Y-107901533D01*
X146501070Y-107901533D01*
X146470265Y-107707043D01*
X146470265Y-107707040D01*
X146409412Y-107519756D01*
X146320011Y-107344296D01*
X146305223Y-107323942D01*
X146204268Y-107184988D01*
X146204264Y-107184983D01*
X146065016Y-107045735D01*
X146065011Y-107045731D01*
X145905707Y-106929991D01*
X145905706Y-106929990D01*
X145905704Y-106929989D01*
X145730244Y-106840588D01*
X145542960Y-106779735D01*
X145542958Y-106779734D01*
X145542956Y-106779734D01*
X145348466Y-106748930D01*
X145348461Y-106748930D01*
X145151539Y-106748930D01*
X145151534Y-106748930D01*
X144957043Y-106779734D01*
X144769753Y-106840589D01*
X144594292Y-106929991D01*
X144434988Y-107045731D01*
X144434983Y-107045735D01*
X144295735Y-107184983D01*
X144295731Y-107184988D01*
X144179991Y-107344292D01*
X144090589Y-107519753D01*
X144029734Y-107707043D01*
X143998930Y-107901533D01*
X111715774Y-107901533D01*
X111760289Y-107871789D01*
X111760292Y-107871786D01*
X111823093Y-107808986D01*
X111871786Y-107760292D01*
X111871789Y-107760289D01*
X111959394Y-107629179D01*
X112019737Y-107483497D01*
X112050500Y-107328842D01*
X112050500Y-107171158D01*
X112050500Y-107171155D01*
X112050499Y-107171153D01*
X112025552Y-107045737D01*
X112019737Y-107016503D01*
X111983902Y-106929989D01*
X111959397Y-106870827D01*
X111959390Y-106870814D01*
X111871789Y-106739711D01*
X111871786Y-106739707D01*
X111760292Y-106628213D01*
X111760288Y-106628210D01*
X111629185Y-106540609D01*
X111629172Y-106540602D01*
X111483501Y-106480264D01*
X111483489Y-106480261D01*
X111328845Y-106449500D01*
X111328842Y-106449500D01*
X111171158Y-106449500D01*
X111171155Y-106449500D01*
X111016510Y-106480261D01*
X111016498Y-106480264D01*
X110870827Y-106540602D01*
X110870814Y-106540609D01*
X110739711Y-106628210D01*
X110739707Y-106628213D01*
X110628213Y-106739707D01*
X110628210Y-106739711D01*
X110540609Y-106870814D01*
X110540602Y-106870827D01*
X110480264Y-107016498D01*
X110480261Y-107016510D01*
X110449500Y-107171153D01*
X99000500Y-107171153D01*
X99000500Y-105671153D01*
X163199500Y-105671153D01*
X163199500Y-105828846D01*
X163230261Y-105983489D01*
X163230264Y-105983501D01*
X163290602Y-106129172D01*
X163290609Y-106129185D01*
X163378210Y-106260288D01*
X163378213Y-106260292D01*
X163489707Y-106371786D01*
X163489711Y-106371789D01*
X163620814Y-106459390D01*
X163620827Y-106459397D01*
X163766498Y-106519735D01*
X163766503Y-106519737D01*
X163921153Y-106550499D01*
X163921156Y-106550500D01*
X163921158Y-106550500D01*
X164078844Y-106550500D01*
X164078845Y-106550499D01*
X164233497Y-106519737D01*
X164379179Y-106459394D01*
X164510289Y-106371789D01*
X164621789Y-106260289D01*
X164709394Y-106129179D01*
X164769737Y-105983497D01*
X164800500Y-105828842D01*
X164800500Y-105671158D01*
X164800500Y-105671155D01*
X164800499Y-105671153D01*
X164769738Y-105516510D01*
X164769737Y-105516503D01*
X164769735Y-105516498D01*
X164709397Y-105370827D01*
X164709390Y-105370814D01*
X164621789Y-105239711D01*
X164621786Y-105239707D01*
X164510292Y-105128213D01*
X164510288Y-105128210D01*
X164379185Y-105040609D01*
X164379172Y-105040602D01*
X164233501Y-104980264D01*
X164233489Y-104980261D01*
X164078845Y-104949500D01*
X164078842Y-104949500D01*
X163921158Y-104949500D01*
X163921155Y-104949500D01*
X163766510Y-104980261D01*
X163766498Y-104980264D01*
X163620827Y-105040602D01*
X163620814Y-105040609D01*
X163489711Y-105128210D01*
X163489707Y-105128213D01*
X163378213Y-105239707D01*
X163378210Y-105239711D01*
X163290609Y-105370814D01*
X163290602Y-105370827D01*
X163230264Y-105516498D01*
X163230261Y-105516510D01*
X163199500Y-105671153D01*
X99000500Y-105671153D01*
X99000500Y-101921153D01*
X104949500Y-101921153D01*
X104949500Y-102078846D01*
X104980261Y-102233489D01*
X104980264Y-102233501D01*
X105040602Y-102379172D01*
X105040609Y-102379185D01*
X105128210Y-102510288D01*
X105128213Y-102510292D01*
X105239707Y-102621786D01*
X105239711Y-102621789D01*
X105370814Y-102709390D01*
X105370827Y-102709397D01*
X105516498Y-102769735D01*
X105516503Y-102769737D01*
X105627617Y-102791839D01*
X105671153Y-102800499D01*
X105671156Y-102800500D01*
X105671158Y-102800500D01*
X105828844Y-102800500D01*
X105828845Y-102800499D01*
X105983497Y-102769737D01*
X106129179Y-102709394D01*
X106260289Y-102621789D01*
X106371789Y-102510289D01*
X106459394Y-102379179D01*
X106519737Y-102233497D01*
X106550500Y-102078842D01*
X106550500Y-101921158D01*
X106550500Y-101921155D01*
X106550499Y-101921153D01*
X106519738Y-101766510D01*
X106519737Y-101766503D01*
X106501662Y-101722865D01*
X106459397Y-101620827D01*
X106459390Y-101620814D01*
X106371789Y-101489711D01*
X106371786Y-101489707D01*
X106260292Y-101378213D01*
X106260288Y-101378210D01*
X106129185Y-101290609D01*
X106129172Y-101290602D01*
X105983501Y-101230264D01*
X105983489Y-101230261D01*
X105828845Y-101199500D01*
X105828842Y-101199500D01*
X105671158Y-101199500D01*
X105671155Y-101199500D01*
X105516510Y-101230261D01*
X105516498Y-101230264D01*
X105370827Y-101290602D01*
X105370814Y-101290609D01*
X105239711Y-101378210D01*
X105239707Y-101378213D01*
X105128213Y-101489707D01*
X105128210Y-101489711D01*
X105040609Y-101620814D01*
X105040602Y-101620827D01*
X104980264Y-101766498D01*
X104980261Y-101766510D01*
X104949500Y-101921153D01*
X99000500Y-101921153D01*
X99000500Y-100848543D01*
X124999499Y-100848543D01*
X125037947Y-101041829D01*
X125037950Y-101041839D01*
X125113364Y-101223907D01*
X125113371Y-101223920D01*
X125222860Y-101387781D01*
X125222863Y-101387785D01*
X125362215Y-101527137D01*
X125364664Y-101529147D01*
X125365601Y-101530523D01*
X125366525Y-101531447D01*
X125366349Y-101531622D01*
X125403998Y-101586893D01*
X125405869Y-101656738D01*
X125369681Y-101716506D01*
X125364664Y-101720853D01*
X125362215Y-101722862D01*
X125222863Y-101862214D01*
X125222860Y-101862218D01*
X125113371Y-102026079D01*
X125113364Y-102026092D01*
X125037950Y-102208160D01*
X125037947Y-102208170D01*
X124999500Y-102401456D01*
X124999500Y-102401459D01*
X124999500Y-102598541D01*
X124999500Y-102598543D01*
X124999499Y-102598543D01*
X125037947Y-102791829D01*
X125037950Y-102791839D01*
X125113364Y-102973907D01*
X125113371Y-102973920D01*
X125222860Y-103137781D01*
X125222863Y-103137785D01*
X125362215Y-103277137D01*
X125364664Y-103279147D01*
X125365601Y-103280523D01*
X125366525Y-103281447D01*
X125366349Y-103281622D01*
X125403998Y-103336893D01*
X125405869Y-103406738D01*
X125369681Y-103466506D01*
X125364664Y-103470853D01*
X125362215Y-103472862D01*
X125222863Y-103612214D01*
X125222860Y-103612218D01*
X125113371Y-103776079D01*
X125113364Y-103776092D01*
X125037950Y-103958160D01*
X125037947Y-103958170D01*
X124999500Y-104151456D01*
X124999500Y-104151459D01*
X124999500Y-104348541D01*
X124999500Y-104348543D01*
X124999499Y-104348543D01*
X125037947Y-104541829D01*
X125037950Y-104541839D01*
X125113364Y-104723907D01*
X125113371Y-104723920D01*
X125222860Y-104887781D01*
X125222863Y-104887785D01*
X125362214Y-105027136D01*
X125362218Y-105027139D01*
X125526079Y-105136628D01*
X125526092Y-105136635D01*
X125708160Y-105212049D01*
X125708165Y-105212051D01*
X125708169Y-105212051D01*
X125708170Y-105212052D01*
X125901456Y-105250500D01*
X125901459Y-105250500D01*
X126098543Y-105250500D01*
X126228582Y-105224632D01*
X126291835Y-105212051D01*
X126473914Y-105136632D01*
X126637782Y-105027139D01*
X126777139Y-104887782D01*
X126886632Y-104723914D01*
X126962051Y-104541835D01*
X127000500Y-104348541D01*
X127000500Y-104151459D01*
X127000500Y-104151456D01*
X126962052Y-103958170D01*
X126962051Y-103958169D01*
X126962051Y-103958165D01*
X126962049Y-103958160D01*
X126886635Y-103776092D01*
X126886628Y-103776079D01*
X126777139Y-103612218D01*
X126777136Y-103612214D01*
X126637787Y-103472865D01*
X126635341Y-103470858D01*
X126634402Y-103469480D01*
X126633475Y-103468553D01*
X126633650Y-103468377D01*
X126596003Y-103413115D01*
X126594128Y-103343271D01*
X126630312Y-103283500D01*
X126635341Y-103279142D01*
X126637776Y-103277142D01*
X126637782Y-103277139D01*
X126777139Y-103137782D01*
X126886632Y-102973914D01*
X126962051Y-102791835D01*
X126995876Y-102621789D01*
X127000500Y-102598543D01*
X127000500Y-102401456D01*
X126962052Y-102208170D01*
X126962051Y-102208169D01*
X126962051Y-102208165D01*
X126908484Y-102078842D01*
X126886635Y-102026092D01*
X126886628Y-102026079D01*
X126777139Y-101862218D01*
X126777136Y-101862214D01*
X126637787Y-101722865D01*
X126635341Y-101720858D01*
X126634402Y-101719480D01*
X126633475Y-101718553D01*
X126633650Y-101718377D01*
X126596003Y-101663115D01*
X126594128Y-101593271D01*
X126630312Y-101533500D01*
X126635341Y-101529142D01*
X126637776Y-101527142D01*
X126637782Y-101527139D01*
X126777139Y-101387782D01*
X126886632Y-101223914D01*
X126962051Y-101041835D01*
X126992963Y-100886431D01*
X127000500Y-100848543D01*
X127000500Y-100651456D01*
X126962052Y-100458170D01*
X126962051Y-100458169D01*
X126962051Y-100458165D01*
X126962049Y-100458160D01*
X126906528Y-100324119D01*
X126888889Y-100281533D01*
X151618930Y-100281533D01*
X151618930Y-100478466D01*
X151649734Y-100672956D01*
X151649735Y-100672960D01*
X151706785Y-100848541D01*
X151710589Y-100860246D01*
X151799991Y-101035707D01*
X151915731Y-101195011D01*
X151915735Y-101195016D01*
X152054983Y-101334264D01*
X152054988Y-101334268D01*
X152179871Y-101425000D01*
X152214296Y-101450011D01*
X152389756Y-101539412D01*
X152577040Y-101600265D01*
X152649977Y-101611816D01*
X152771534Y-101631070D01*
X152771539Y-101631070D01*
X152968466Y-101631070D01*
X153076516Y-101613956D01*
X153162960Y-101600265D01*
X153350244Y-101539412D01*
X153525704Y-101450011D01*
X153685018Y-101334263D01*
X153824263Y-101195018D01*
X153940011Y-101035704D01*
X154029412Y-100860244D01*
X154090265Y-100672960D01*
X154118355Y-100495606D01*
X154121070Y-100478466D01*
X154121070Y-100281533D01*
X154103730Y-100172052D01*
X154094252Y-100112214D01*
X154090265Y-100087040D01*
X154029412Y-99899756D01*
X153940011Y-99724296D01*
X153874529Y-99634167D01*
X153824268Y-99564988D01*
X153824264Y-99564983D01*
X153685016Y-99425735D01*
X153685011Y-99425731D01*
X153525707Y-99309991D01*
X153525706Y-99309990D01*
X153525704Y-99309989D01*
X153350244Y-99220588D01*
X153162960Y-99159735D01*
X153162958Y-99159734D01*
X153162956Y-99159734D01*
X152968466Y-99128930D01*
X152968461Y-99128930D01*
X152771539Y-99128930D01*
X152771534Y-99128930D01*
X152577043Y-99159734D01*
X152389753Y-99220589D01*
X152214292Y-99309991D01*
X152054988Y-99425731D01*
X152054983Y-99425735D01*
X151915735Y-99564983D01*
X151915731Y-99564988D01*
X151799991Y-99724292D01*
X151710589Y-99899753D01*
X151649734Y-100087043D01*
X151618930Y-100281533D01*
X126888889Y-100281533D01*
X126886635Y-100276091D01*
X126886628Y-100276079D01*
X126777139Y-100112218D01*
X126777136Y-100112214D01*
X126637785Y-99972863D01*
X126637781Y-99972860D01*
X126473920Y-99863371D01*
X126473907Y-99863364D01*
X126291839Y-99787950D01*
X126291829Y-99787947D01*
X126098543Y-99749500D01*
X126098541Y-99749500D01*
X125901459Y-99749500D01*
X125901457Y-99749500D01*
X125708170Y-99787947D01*
X125708160Y-99787950D01*
X125526092Y-99863364D01*
X125526079Y-99863371D01*
X125362218Y-99972860D01*
X125362214Y-99972863D01*
X125222863Y-100112214D01*
X125222860Y-100112218D01*
X125113371Y-100276079D01*
X125113364Y-100276092D01*
X125037950Y-100458160D01*
X125037947Y-100458170D01*
X124999500Y-100651456D01*
X124999500Y-100651459D01*
X124999500Y-100848541D01*
X124999500Y-100848543D01*
X124999499Y-100848543D01*
X99000500Y-100848543D01*
X99000500Y-95348543D01*
X134499499Y-95348543D01*
X134537947Y-95541829D01*
X134537950Y-95541839D01*
X134613364Y-95723907D01*
X134613371Y-95723920D01*
X134722860Y-95887781D01*
X134722863Y-95887785D01*
X134862214Y-96027136D01*
X134862218Y-96027139D01*
X135026079Y-96136628D01*
X135026092Y-96136635D01*
X135208160Y-96212049D01*
X135208165Y-96212051D01*
X135208169Y-96212051D01*
X135208170Y-96212052D01*
X135401456Y-96250500D01*
X135401459Y-96250500D01*
X135598543Y-96250500D01*
X135728582Y-96224632D01*
X135791835Y-96212051D01*
X135973914Y-96136632D01*
X136137782Y-96027139D01*
X136277139Y-95887782D01*
X136386632Y-95723914D01*
X136462051Y-95541835D01*
X136490570Y-95398461D01*
X136500500Y-95348543D01*
X136500500Y-95151456D01*
X136462052Y-94958170D01*
X136462051Y-94958169D01*
X136462051Y-94958165D01*
X136404721Y-94819756D01*
X136386635Y-94776092D01*
X136386628Y-94776079D01*
X136277139Y-94612218D01*
X136277136Y-94612214D01*
X136166487Y-94501565D01*
X143998930Y-94501565D01*
X143998930Y-96098440D01*
X143998931Y-96098446D01*
X144005338Y-96158053D01*
X144055632Y-96292898D01*
X144055636Y-96292905D01*
X144141882Y-96408114D01*
X144141885Y-96408117D01*
X144257094Y-96494363D01*
X144257101Y-96494367D01*
X144391947Y-96544661D01*
X144391946Y-96544661D01*
X144398874Y-96545405D01*
X144451557Y-96551070D01*
X146048442Y-96551069D01*
X146108053Y-96544661D01*
X146242901Y-96494366D01*
X146358116Y-96408116D01*
X146444366Y-96292901D01*
X146494661Y-96158053D01*
X146501070Y-96098443D01*
X146501069Y-95201533D01*
X151618930Y-95201533D01*
X151618930Y-95398466D01*
X151641638Y-95541839D01*
X151649735Y-95592960D01*
X151710588Y-95780244D01*
X151766511Y-95890000D01*
X151799991Y-95955707D01*
X151915731Y-96115011D01*
X151915735Y-96115016D01*
X152054983Y-96254264D01*
X152054988Y-96254268D01*
X152108168Y-96292905D01*
X152214296Y-96370011D01*
X152389756Y-96459412D01*
X152577040Y-96520265D01*
X152649977Y-96531816D01*
X152771534Y-96551070D01*
X152771539Y-96551070D01*
X152968466Y-96551070D01*
X153076516Y-96533956D01*
X153162960Y-96520265D01*
X153350244Y-96459412D01*
X153525704Y-96370011D01*
X153685018Y-96254263D01*
X153824263Y-96115018D01*
X153940011Y-95955704D01*
X154029412Y-95780244D01*
X154090265Y-95592960D01*
X154103956Y-95506516D01*
X154121070Y-95398466D01*
X154121070Y-95201533D01*
X154100533Y-95071873D01*
X154090265Y-95007040D01*
X154029412Y-94819756D01*
X153940011Y-94644296D01*
X153916702Y-94612214D01*
X153824268Y-94484988D01*
X153824264Y-94484983D01*
X153685016Y-94345735D01*
X153685011Y-94345731D01*
X153525707Y-94229991D01*
X153525706Y-94229990D01*
X153525704Y-94229989D01*
X153350244Y-94140588D01*
X153162960Y-94079735D01*
X153162958Y-94079734D01*
X153162956Y-94079734D01*
X152968466Y-94048930D01*
X152968461Y-94048930D01*
X152771539Y-94048930D01*
X152771534Y-94048930D01*
X152577043Y-94079734D01*
X152389753Y-94140589D01*
X152214292Y-94229991D01*
X152054988Y-94345731D01*
X152054983Y-94345735D01*
X151915735Y-94484983D01*
X151915731Y-94484988D01*
X151799991Y-94644292D01*
X151710589Y-94819753D01*
X151649734Y-95007043D01*
X151618930Y-95201533D01*
X146501069Y-95201533D01*
X146501069Y-94501558D01*
X146494661Y-94441947D01*
X146465351Y-94363364D01*
X146444367Y-94307101D01*
X146444363Y-94307094D01*
X146358117Y-94191885D01*
X146358114Y-94191882D01*
X146242905Y-94105636D01*
X146242898Y-94105632D01*
X146108052Y-94055338D01*
X146108053Y-94055338D01*
X146048453Y-94048931D01*
X146048451Y-94048930D01*
X146048443Y-94048930D01*
X146048434Y-94048930D01*
X144451559Y-94048930D01*
X144451553Y-94048931D01*
X144391946Y-94055338D01*
X144257101Y-94105632D01*
X144257094Y-94105636D01*
X144141885Y-94191882D01*
X144141882Y-94191885D01*
X144055636Y-94307094D01*
X144055632Y-94307101D01*
X144005338Y-94441947D01*
X144000712Y-94484982D01*
X143998931Y-94501553D01*
X143998930Y-94501565D01*
X136166487Y-94501565D01*
X136137785Y-94472863D01*
X136137781Y-94472860D01*
X135973920Y-94363371D01*
X135973907Y-94363364D01*
X135791839Y-94287950D01*
X135791829Y-94287947D01*
X135598543Y-94249500D01*
X135598541Y-94249500D01*
X135401459Y-94249500D01*
X135401457Y-94249500D01*
X135208170Y-94287947D01*
X135208160Y-94287950D01*
X135026092Y-94363364D01*
X135026079Y-94363371D01*
X134862218Y-94472860D01*
X134862214Y-94472863D01*
X134722863Y-94612214D01*
X134722860Y-94612218D01*
X134613371Y-94776079D01*
X134613364Y-94776092D01*
X134537950Y-94958160D01*
X134537947Y-94958170D01*
X134499500Y-95151456D01*
X134499500Y-95151459D01*
X134499500Y-95348541D01*
X134499500Y-95348543D01*
X134499499Y-95348543D01*
X99000500Y-95348543D01*
X99000500Y-91527135D01*
X168574500Y-91527135D01*
X168574500Y-92972870D01*
X168574501Y-92972876D01*
X168580908Y-93032483D01*
X168631202Y-93167328D01*
X168631206Y-93167335D01*
X168717452Y-93282544D01*
X168717453Y-93282544D01*
X168717454Y-93282546D01*
X168768740Y-93320939D01*
X168802539Y-93346241D01*
X168844409Y-93402175D01*
X168849393Y-93471867D01*
X168828545Y-93518392D01*
X168744624Y-93633900D01*
X168660620Y-93798764D01*
X168660619Y-93798767D01*
X168603445Y-93974734D01*
X168586815Y-94079734D01*
X168574500Y-94157486D01*
X168574500Y-94342514D01*
X168588972Y-94433889D01*
X168603445Y-94525265D01*
X168660619Y-94701232D01*
X168660620Y-94701235D01*
X168744622Y-94866096D01*
X168853379Y-95015787D01*
X168984213Y-95146621D01*
X168988421Y-95149678D01*
X168988432Y-95149686D01*
X169031094Y-95205019D01*
X169037069Y-95274633D01*
X169004459Y-95336426D01*
X168988432Y-95350314D01*
X168984210Y-95353381D01*
X168853381Y-95484210D01*
X168853381Y-95484211D01*
X168853379Y-95484213D01*
X168811514Y-95541835D01*
X168744622Y-95633903D01*
X168660620Y-95798764D01*
X168660619Y-95798767D01*
X168603445Y-95974734D01*
X168574500Y-96157486D01*
X168574500Y-96342513D01*
X168603445Y-96525265D01*
X168660619Y-96701232D01*
X168660620Y-96701235D01*
X168677059Y-96733497D01*
X168744622Y-96866096D01*
X168853379Y-97015787D01*
X168984213Y-97146621D01*
X168988421Y-97149678D01*
X168988432Y-97149686D01*
X169031094Y-97205019D01*
X169037069Y-97274633D01*
X169004459Y-97336426D01*
X168988432Y-97350314D01*
X168984210Y-97353381D01*
X168853381Y-97484210D01*
X168853381Y-97484211D01*
X168853379Y-97484213D01*
X168806672Y-97548499D01*
X168744622Y-97633903D01*
X168660620Y-97798764D01*
X168660619Y-97798767D01*
X168603445Y-97974734D01*
X168574500Y-98157486D01*
X168574500Y-98342513D01*
X168603445Y-98525265D01*
X168660619Y-98701232D01*
X168660620Y-98701235D01*
X168744622Y-98866096D01*
X168853379Y-99015787D01*
X168984213Y-99146621D01*
X169002261Y-99159734D01*
X169058831Y-99200834D01*
X169073806Y-99220254D01*
X169703554Y-99850000D01*
X169697339Y-99850000D01*
X169595606Y-99877259D01*
X169504394Y-99929920D01*
X169429920Y-100004394D01*
X169377259Y-100095606D01*
X169350000Y-100197339D01*
X169350000Y-100203553D01*
X168760015Y-99613568D01*
X168745049Y-99634167D01*
X168661084Y-99798956D01*
X168661083Y-99798959D01*
X168603933Y-99974852D01*
X168575000Y-100157526D01*
X168575000Y-100342473D01*
X168603933Y-100525147D01*
X168661083Y-100701040D01*
X168661084Y-100701043D01*
X168745050Y-100865834D01*
X168760015Y-100886430D01*
X168760016Y-100886431D01*
X169350000Y-100296447D01*
X169350000Y-100302661D01*
X169377259Y-100404394D01*
X169429920Y-100495606D01*
X169504394Y-100570080D01*
X169595606Y-100622741D01*
X169697339Y-100650000D01*
X169703553Y-100650000D01*
X169113568Y-101239983D01*
X169113568Y-101239984D01*
X169134165Y-101254949D01*
X169298956Y-101338915D01*
X169298959Y-101338916D01*
X169474852Y-101396066D01*
X169657527Y-101425000D01*
X169842473Y-101425000D01*
X170025147Y-101396066D01*
X170201040Y-101338916D01*
X170201043Y-101338915D01*
X170365836Y-101254947D01*
X170365845Y-101254942D01*
X170386430Y-101239984D01*
X170386431Y-101239983D01*
X169796448Y-100650000D01*
X169802661Y-100650000D01*
X169904394Y-100622741D01*
X169995606Y-100570080D01*
X170070080Y-100495606D01*
X170122741Y-100404394D01*
X170150000Y-100302661D01*
X170150000Y-100296447D01*
X170739983Y-100886430D01*
X170739984Y-100886430D01*
X170754942Y-100865845D01*
X170754947Y-100865836D01*
X170838915Y-100701043D01*
X170838916Y-100701040D01*
X170896066Y-100525147D01*
X170925000Y-100342473D01*
X170925000Y-100157526D01*
X170896066Y-99974852D01*
X170838916Y-99798959D01*
X170838915Y-99798956D01*
X170754949Y-99634165D01*
X170739983Y-99613568D01*
X170150000Y-100203551D01*
X170150000Y-100197339D01*
X170122741Y-100095606D01*
X170070080Y-100004394D01*
X169995606Y-99929920D01*
X169904394Y-99877259D01*
X169802661Y-99850000D01*
X169796447Y-99850000D01*
X170410675Y-99235771D01*
X170441165Y-99200836D01*
X170515787Y-99146621D01*
X170646621Y-99015787D01*
X170755378Y-98866096D01*
X170839379Y-98701235D01*
X170896555Y-98525264D01*
X170925500Y-98342514D01*
X170925500Y-98157486D01*
X170896555Y-97974736D01*
X170839379Y-97798765D01*
X170839379Y-97798764D01*
X170755377Y-97633903D01*
X170646621Y-97484213D01*
X170515787Y-97353379D01*
X170511576Y-97350319D01*
X170468909Y-97294994D01*
X170462926Y-97225381D01*
X170495529Y-97163585D01*
X170511570Y-97149684D01*
X170515787Y-97146621D01*
X170646621Y-97015787D01*
X170755378Y-96866096D01*
X170839379Y-96701235D01*
X170896555Y-96525264D01*
X170913045Y-96421153D01*
X186449500Y-96421153D01*
X186449500Y-96578846D01*
X186480261Y-96733489D01*
X186480264Y-96733501D01*
X186540602Y-96879172D01*
X186540609Y-96879185D01*
X186628210Y-97010288D01*
X186628213Y-97010292D01*
X186739707Y-97121786D01*
X186739711Y-97121789D01*
X186870814Y-97209390D01*
X186870827Y-97209397D01*
X186968853Y-97250000D01*
X187016503Y-97269737D01*
X187143478Y-97294994D01*
X187171153Y-97300499D01*
X187171156Y-97300500D01*
X187171158Y-97300500D01*
X187328844Y-97300500D01*
X187328845Y-97300499D01*
X187483497Y-97269737D01*
X187629179Y-97209394D01*
X187760289Y-97121789D01*
X187871789Y-97010289D01*
X187959394Y-96879179D01*
X188019737Y-96733497D01*
X188050500Y-96578842D01*
X188050500Y-96421158D01*
X188050500Y-96421155D01*
X188050499Y-96421153D01*
X188040326Y-96370011D01*
X188019737Y-96266503D01*
X188014669Y-96254268D01*
X187959397Y-96120827D01*
X187959390Y-96120814D01*
X187871789Y-95989711D01*
X187871786Y-95989707D01*
X187760292Y-95878213D01*
X187760288Y-95878210D01*
X187629185Y-95790609D01*
X187629172Y-95790602D01*
X187483501Y-95730264D01*
X187483489Y-95730261D01*
X187328845Y-95699500D01*
X187328842Y-95699500D01*
X187171158Y-95699500D01*
X187171155Y-95699500D01*
X187016510Y-95730261D01*
X187016498Y-95730264D01*
X186870827Y-95790602D01*
X186870814Y-95790609D01*
X186739711Y-95878210D01*
X186739707Y-95878213D01*
X186628213Y-95989707D01*
X186628210Y-95989711D01*
X186540609Y-96120814D01*
X186540602Y-96120827D01*
X186480264Y-96266498D01*
X186480261Y-96266510D01*
X186449500Y-96421153D01*
X170913045Y-96421153D01*
X170925500Y-96342514D01*
X170925500Y-96157486D01*
X170896555Y-95974736D01*
X170839379Y-95798765D01*
X170839379Y-95798764D01*
X170755377Y-95633903D01*
X170725630Y-95592960D01*
X170646621Y-95484213D01*
X170515787Y-95353379D01*
X170511576Y-95350319D01*
X170468909Y-95294994D01*
X170462926Y-95225381D01*
X170495529Y-95163585D01*
X170511570Y-95149684D01*
X170515787Y-95146621D01*
X170646621Y-95015787D01*
X170755378Y-94866096D01*
X170839379Y-94701235D01*
X170896555Y-94525264D01*
X170925500Y-94342514D01*
X170925500Y-94157486D01*
X170896555Y-93974736D01*
X170839943Y-93800500D01*
X170839380Y-93798767D01*
X170839379Y-93798764D01*
X170755377Y-93633903D01*
X170746573Y-93621786D01*
X170671453Y-93518392D01*
X170647974Y-93452586D01*
X170663799Y-93384532D01*
X170697459Y-93346241D01*
X170782546Y-93282546D01*
X170868796Y-93167331D01*
X170919091Y-93032483D01*
X170925500Y-92972873D01*
X170925500Y-92921153D01*
X185949500Y-92921153D01*
X185949500Y-93078846D01*
X185980261Y-93233489D01*
X185980264Y-93233501D01*
X186040602Y-93379172D01*
X186040609Y-93379185D01*
X186128210Y-93510288D01*
X186128213Y-93510292D01*
X186239707Y-93621786D01*
X186239711Y-93621789D01*
X186370814Y-93709390D01*
X186370827Y-93709397D01*
X186516498Y-93769735D01*
X186516503Y-93769737D01*
X186662431Y-93798764D01*
X186671153Y-93800499D01*
X186671156Y-93800500D01*
X186671158Y-93800500D01*
X186828844Y-93800500D01*
X186828845Y-93800499D01*
X186983497Y-93769737D01*
X187129179Y-93709394D01*
X187260289Y-93621789D01*
X187371789Y-93510289D01*
X187379145Y-93499279D01*
X187396898Y-93472712D01*
X187450510Y-93427906D01*
X187519835Y-93419199D01*
X187582862Y-93449353D01*
X187603102Y-93472712D01*
X187628207Y-93510284D01*
X187628213Y-93510292D01*
X187739707Y-93621786D01*
X187739711Y-93621789D01*
X187870814Y-93709390D01*
X187870827Y-93709397D01*
X188016498Y-93769735D01*
X188016503Y-93769737D01*
X188162431Y-93798764D01*
X188171153Y-93800499D01*
X188171156Y-93800500D01*
X188171158Y-93800500D01*
X188328844Y-93800500D01*
X188328845Y-93800499D01*
X188483497Y-93769737D01*
X188629179Y-93709394D01*
X188760289Y-93621789D01*
X188871789Y-93510289D01*
X188959394Y-93379179D01*
X189019737Y-93233497D01*
X189050500Y-93078842D01*
X189050500Y-92921158D01*
X189050500Y-92921155D01*
X189050499Y-92921153D01*
X189019738Y-92766510D01*
X189019737Y-92766503D01*
X189000000Y-92718853D01*
X188959397Y-92620827D01*
X188959390Y-92620814D01*
X188871789Y-92489711D01*
X188871786Y-92489707D01*
X188760292Y-92378213D01*
X188760288Y-92378210D01*
X188629185Y-92290609D01*
X188629172Y-92290602D01*
X188483501Y-92230264D01*
X188483489Y-92230261D01*
X188328845Y-92199500D01*
X188328842Y-92199500D01*
X188171158Y-92199500D01*
X188171155Y-92199500D01*
X188016510Y-92230261D01*
X188016498Y-92230264D01*
X187870827Y-92290602D01*
X187870814Y-92290609D01*
X187739711Y-92378210D01*
X187739707Y-92378213D01*
X187628213Y-92489707D01*
X187603102Y-92527289D01*
X187549489Y-92572093D01*
X187480164Y-92580800D01*
X187417137Y-92550645D01*
X187396898Y-92527289D01*
X187371786Y-92489707D01*
X187260292Y-92378213D01*
X187260288Y-92378210D01*
X187129185Y-92290609D01*
X187129172Y-92290602D01*
X186983501Y-92230264D01*
X186983489Y-92230261D01*
X186828845Y-92199500D01*
X186828842Y-92199500D01*
X186671158Y-92199500D01*
X186671155Y-92199500D01*
X186516510Y-92230261D01*
X186516498Y-92230264D01*
X186370827Y-92290602D01*
X186370814Y-92290609D01*
X186239711Y-92378210D01*
X186239707Y-92378213D01*
X186128213Y-92489707D01*
X186128210Y-92489711D01*
X186040609Y-92620814D01*
X186040602Y-92620827D01*
X185980264Y-92766498D01*
X185980261Y-92766510D01*
X185949500Y-92921153D01*
X170925500Y-92921153D01*
X170925499Y-92230264D01*
X170925499Y-91527129D01*
X170925498Y-91527123D01*
X170925497Y-91527116D01*
X170919091Y-91467517D01*
X170868796Y-91332669D01*
X170868795Y-91332668D01*
X170868793Y-91332664D01*
X170782547Y-91217455D01*
X170782544Y-91217452D01*
X170667335Y-91131206D01*
X170667328Y-91131202D01*
X170532482Y-91080908D01*
X170532483Y-91080908D01*
X170472883Y-91074501D01*
X170472881Y-91074500D01*
X170472873Y-91074500D01*
X170472864Y-91074500D01*
X169027129Y-91074500D01*
X169027123Y-91074501D01*
X168967516Y-91080908D01*
X168832671Y-91131202D01*
X168832664Y-91131206D01*
X168717455Y-91217452D01*
X168717452Y-91217455D01*
X168631206Y-91332664D01*
X168631202Y-91332671D01*
X168580908Y-91467517D01*
X168574501Y-91527116D01*
X168574501Y-91527123D01*
X168574500Y-91527135D01*
X99000500Y-91527135D01*
X99000500Y-90348543D01*
X121749499Y-90348543D01*
X121787947Y-90541829D01*
X121787950Y-90541839D01*
X121863364Y-90723907D01*
X121863371Y-90723920D01*
X121972860Y-90887781D01*
X121972863Y-90887785D01*
X122112214Y-91027136D01*
X122112218Y-91027139D01*
X122276079Y-91136628D01*
X122276092Y-91136635D01*
X122458160Y-91212049D01*
X122458165Y-91212051D01*
X122458169Y-91212051D01*
X122458170Y-91212052D01*
X122651456Y-91250500D01*
X122651459Y-91250500D01*
X122848543Y-91250500D01*
X122978582Y-91224632D01*
X123041835Y-91212051D01*
X123223914Y-91136632D01*
X123387782Y-91027139D01*
X123527139Y-90887782D01*
X123527142Y-90887776D01*
X123529142Y-90885341D01*
X123530519Y-90884402D01*
X123531447Y-90883475D01*
X123531622Y-90883650D01*
X123586885Y-90846003D01*
X123656729Y-90844128D01*
X123716500Y-90880312D01*
X123720858Y-90885341D01*
X123722865Y-90887787D01*
X123862214Y-91027136D01*
X123862218Y-91027139D01*
X124026079Y-91136628D01*
X124026092Y-91136635D01*
X124208160Y-91212049D01*
X124208165Y-91212051D01*
X124208169Y-91212051D01*
X124208170Y-91212052D01*
X124401456Y-91250500D01*
X124401459Y-91250500D01*
X124598543Y-91250500D01*
X124728582Y-91224632D01*
X124791835Y-91212051D01*
X124973914Y-91136632D01*
X125137782Y-91027139D01*
X125277139Y-90887782D01*
X125386632Y-90723914D01*
X125462051Y-90541835D01*
X125500500Y-90348541D01*
X125500500Y-90151459D01*
X125500500Y-90151456D01*
X125462052Y-89958170D01*
X125462051Y-89958169D01*
X125462051Y-89958165D01*
X125462049Y-89958160D01*
X125386635Y-89776092D01*
X125386628Y-89776079D01*
X125277139Y-89612218D01*
X125277136Y-89612214D01*
X125137785Y-89472863D01*
X125137781Y-89472860D01*
X124973920Y-89363371D01*
X124973907Y-89363364D01*
X124791839Y-89287950D01*
X124791829Y-89287947D01*
X124598543Y-89249500D01*
X124598541Y-89249500D01*
X124401459Y-89249500D01*
X124401457Y-89249500D01*
X124208170Y-89287947D01*
X124208160Y-89287950D01*
X124026092Y-89363364D01*
X124026079Y-89363371D01*
X123862218Y-89472860D01*
X123862214Y-89472863D01*
X123722862Y-89612215D01*
X123720853Y-89614664D01*
X123719476Y-89615601D01*
X123718553Y-89616525D01*
X123718377Y-89616349D01*
X123663107Y-89653998D01*
X123593262Y-89655869D01*
X123533494Y-89619681D01*
X123529147Y-89614664D01*
X123527137Y-89612215D01*
X123387785Y-89472863D01*
X123387781Y-89472860D01*
X123223920Y-89363371D01*
X123223907Y-89363364D01*
X123041839Y-89287950D01*
X123041829Y-89287947D01*
X122848543Y-89249500D01*
X122848541Y-89249500D01*
X122651459Y-89249500D01*
X122651457Y-89249500D01*
X122458170Y-89287947D01*
X122458160Y-89287950D01*
X122276092Y-89363364D01*
X122276079Y-89363371D01*
X122112218Y-89472860D01*
X122112214Y-89472863D01*
X121972863Y-89612214D01*
X121972860Y-89612218D01*
X121863371Y-89776079D01*
X121863364Y-89776092D01*
X121787950Y-89958160D01*
X121787947Y-89958170D01*
X121749500Y-90151456D01*
X121749500Y-90151459D01*
X121749500Y-90348541D01*
X121749500Y-90348543D01*
X121749499Y-90348543D01*
X99000500Y-90348543D01*
X99000500Y-88421153D01*
X177699500Y-88421153D01*
X177699500Y-88578846D01*
X177730261Y-88733489D01*
X177730264Y-88733501D01*
X177790602Y-88879172D01*
X177790609Y-88879185D01*
X177878210Y-89010288D01*
X177878213Y-89010292D01*
X177989707Y-89121786D01*
X177989711Y-89121789D01*
X178120814Y-89209390D01*
X178120827Y-89209397D01*
X178217646Y-89249500D01*
X178266503Y-89269737D01*
X178421153Y-89300499D01*
X178421156Y-89300500D01*
X178421158Y-89300500D01*
X178578844Y-89300500D01*
X178578845Y-89300499D01*
X178733497Y-89269737D01*
X178879179Y-89209394D01*
X179010289Y-89121789D01*
X179121789Y-89010289D01*
X179209394Y-88879179D01*
X179269737Y-88733497D01*
X179300500Y-88578842D01*
X179300500Y-88421158D01*
X179300500Y-88421155D01*
X179300499Y-88421153D01*
X179269738Y-88266510D01*
X179269737Y-88266503D01*
X179269735Y-88266498D01*
X179209397Y-88120827D01*
X179209390Y-88120814D01*
X179121789Y-87989711D01*
X179121786Y-87989707D01*
X179010292Y-87878213D01*
X179010288Y-87878210D01*
X178879185Y-87790609D01*
X178879172Y-87790602D01*
X178733501Y-87730264D01*
X178733489Y-87730261D01*
X178578845Y-87699500D01*
X178578842Y-87699500D01*
X178421158Y-87699500D01*
X178421155Y-87699500D01*
X178266510Y-87730261D01*
X178266498Y-87730264D01*
X178120827Y-87790602D01*
X178120814Y-87790609D01*
X177989711Y-87878210D01*
X177989707Y-87878213D01*
X177878213Y-87989707D01*
X177878210Y-87989711D01*
X177790609Y-88120814D01*
X177790602Y-88120827D01*
X177730264Y-88266498D01*
X177730261Y-88266510D01*
X177699500Y-88421153D01*
X99000500Y-88421153D01*
X99000500Y-87602999D01*
X185749974Y-87602999D01*
X185749974Y-87760692D01*
X185780735Y-87915335D01*
X185780738Y-87915347D01*
X185841076Y-88061018D01*
X185841083Y-88061031D01*
X185928684Y-88192134D01*
X185928687Y-88192138D01*
X186040181Y-88303632D01*
X186040185Y-88303635D01*
X186171288Y-88391236D01*
X186171301Y-88391243D01*
X186316972Y-88451581D01*
X186316977Y-88451583D01*
X186471627Y-88482345D01*
X186471630Y-88482346D01*
X186471632Y-88482346D01*
X186629318Y-88482346D01*
X186629319Y-88482345D01*
X186783971Y-88451583D01*
X186929653Y-88391240D01*
X187060763Y-88303635D01*
X187172263Y-88192135D01*
X187259868Y-88061025D01*
X187320211Y-87915343D01*
X187350974Y-87760688D01*
X187350974Y-87603004D01*
X187350974Y-87603001D01*
X187324599Y-87470408D01*
X187330826Y-87400816D01*
X187373689Y-87345639D01*
X187439579Y-87322394D01*
X187470408Y-87324599D01*
X187603001Y-87350974D01*
X187603004Y-87350974D01*
X187760690Y-87350974D01*
X187760691Y-87350973D01*
X187915343Y-87320211D01*
X188028012Y-87273541D01*
X188061018Y-87259871D01*
X188061018Y-87259870D01*
X188061025Y-87259868D01*
X188192135Y-87172263D01*
X188303635Y-87060763D01*
X188391240Y-86929653D01*
X188398507Y-86912110D01*
X188409039Y-86886681D01*
X188451583Y-86783971D01*
X188482346Y-86629316D01*
X188482346Y-86471632D01*
X188482346Y-86471629D01*
X188482345Y-86471627D01*
X188451583Y-86316977D01*
X188441169Y-86291835D01*
X188391243Y-86171301D01*
X188391236Y-86171288D01*
X188303635Y-86040185D01*
X188303632Y-86040181D01*
X188192138Y-85928687D01*
X188192134Y-85928684D01*
X188061031Y-85841083D01*
X188061018Y-85841076D01*
X187915347Y-85780738D01*
X187915335Y-85780735D01*
X187760691Y-85749974D01*
X187760688Y-85749974D01*
X187603004Y-85749974D01*
X187603001Y-85749974D01*
X187448356Y-85780735D01*
X187448344Y-85780738D01*
X187302673Y-85841076D01*
X187302660Y-85841083D01*
X187171557Y-85928684D01*
X187171553Y-85928687D01*
X187060059Y-86040181D01*
X187060056Y-86040185D01*
X186972455Y-86171288D01*
X186972448Y-86171301D01*
X186912110Y-86316972D01*
X186912107Y-86316984D01*
X186881346Y-86471627D01*
X186881346Y-86629320D01*
X186907720Y-86761912D01*
X186901493Y-86831504D01*
X186858630Y-86886681D01*
X186792740Y-86909925D01*
X186761912Y-86907720D01*
X186629320Y-86881346D01*
X186629316Y-86881346D01*
X186471632Y-86881346D01*
X186471629Y-86881346D01*
X186316984Y-86912107D01*
X186316972Y-86912110D01*
X186171301Y-86972448D01*
X186171288Y-86972455D01*
X186040185Y-87060056D01*
X186040181Y-87060059D01*
X185928687Y-87171553D01*
X185928684Y-87171557D01*
X185841083Y-87302660D01*
X185841076Y-87302673D01*
X185780738Y-87448344D01*
X185780735Y-87448356D01*
X185749974Y-87602999D01*
X99000500Y-87602999D01*
X99000500Y-86098543D01*
X121749499Y-86098543D01*
X121787947Y-86291829D01*
X121787950Y-86291839D01*
X121863364Y-86473907D01*
X121863371Y-86473920D01*
X121972860Y-86637781D01*
X121972863Y-86637785D01*
X122112214Y-86777136D01*
X122112218Y-86777139D01*
X122276079Y-86886628D01*
X122276092Y-86886635D01*
X122379963Y-86929659D01*
X122458165Y-86962051D01*
X122458169Y-86962051D01*
X122458170Y-86962052D01*
X122651456Y-87000500D01*
X122651459Y-87000500D01*
X122848543Y-87000500D01*
X122989566Y-86972448D01*
X123041835Y-86962051D01*
X123223914Y-86886632D01*
X123387782Y-86777139D01*
X123527139Y-86637782D01*
X123527142Y-86637776D01*
X123529142Y-86635341D01*
X123530519Y-86634402D01*
X123531447Y-86633475D01*
X123531622Y-86633650D01*
X123586885Y-86596003D01*
X123656729Y-86594128D01*
X123716500Y-86630312D01*
X123720858Y-86635341D01*
X123722865Y-86637787D01*
X123862214Y-86777136D01*
X123862218Y-86777139D01*
X124026079Y-86886628D01*
X124026092Y-86886635D01*
X124129963Y-86929659D01*
X124208165Y-86962051D01*
X124208169Y-86962051D01*
X124208170Y-86962052D01*
X124401456Y-87000500D01*
X124401459Y-87000500D01*
X124598543Y-87000500D01*
X124739566Y-86972448D01*
X124791835Y-86962051D01*
X124973914Y-86886632D01*
X125137782Y-86777139D01*
X125277139Y-86637782D01*
X125386632Y-86473914D01*
X125387579Y-86471629D01*
X125403721Y-86432655D01*
X125462051Y-86291835D01*
X125494598Y-86128213D01*
X125500500Y-86098543D01*
X125500500Y-85901456D01*
X125489975Y-85848543D01*
X165749499Y-85848543D01*
X165787947Y-86041829D01*
X165787950Y-86041839D01*
X165863364Y-86223907D01*
X165863371Y-86223920D01*
X165972860Y-86387781D01*
X165972863Y-86387785D01*
X166112214Y-86527136D01*
X166112218Y-86527139D01*
X166276079Y-86636628D01*
X166276092Y-86636635D01*
X166458160Y-86712049D01*
X166458165Y-86712051D01*
X166458169Y-86712051D01*
X166458170Y-86712052D01*
X166651456Y-86750500D01*
X166651459Y-86750500D01*
X166848543Y-86750500D01*
X166978582Y-86724632D01*
X167041835Y-86712051D01*
X167140573Y-86671153D01*
X180449500Y-86671153D01*
X180449500Y-86828846D01*
X180480261Y-86983489D01*
X180480264Y-86983501D01*
X180540602Y-87129172D01*
X180540609Y-87129185D01*
X180628210Y-87260288D01*
X180628213Y-87260292D01*
X180739707Y-87371786D01*
X180739711Y-87371789D01*
X180870814Y-87459390D01*
X180870827Y-87459397D01*
X181016498Y-87519735D01*
X181016503Y-87519737D01*
X181171153Y-87550499D01*
X181171156Y-87550500D01*
X181171158Y-87550500D01*
X181328844Y-87550500D01*
X181328845Y-87550499D01*
X181483497Y-87519737D01*
X181573755Y-87482351D01*
X181573756Y-87482351D01*
X181602589Y-87470408D01*
X181629179Y-87459394D01*
X181760289Y-87371789D01*
X181871789Y-87260289D01*
X181959394Y-87129179D01*
X182019737Y-86983497D01*
X182050500Y-86828842D01*
X182050500Y-86671158D01*
X182050500Y-86671155D01*
X182050499Y-86671153D01*
X182043632Y-86636632D01*
X182019737Y-86516503D01*
X181966421Y-86387785D01*
X181959397Y-86370827D01*
X181959390Y-86370814D01*
X181871789Y-86239711D01*
X181871786Y-86239707D01*
X181760292Y-86128213D01*
X181760288Y-86128210D01*
X181629185Y-86040609D01*
X181629172Y-86040602D01*
X181483501Y-85980264D01*
X181483489Y-85980261D01*
X181328845Y-85949500D01*
X181328842Y-85949500D01*
X181171158Y-85949500D01*
X181171155Y-85949500D01*
X181016510Y-85980261D01*
X181016498Y-85980264D01*
X180870827Y-86040602D01*
X180870814Y-86040609D01*
X180739711Y-86128210D01*
X180739707Y-86128213D01*
X180628213Y-86239707D01*
X180628210Y-86239711D01*
X180540609Y-86370814D01*
X180540602Y-86370827D01*
X180480264Y-86516498D01*
X180480261Y-86516510D01*
X180449500Y-86671153D01*
X167140573Y-86671153D01*
X167221126Y-86637787D01*
X167223907Y-86636635D01*
X167223907Y-86636634D01*
X167223914Y-86636632D01*
X167387782Y-86527139D01*
X167527139Y-86387782D01*
X167636632Y-86223914D01*
X167712051Y-86041835D01*
X167734558Y-85928685D01*
X167750500Y-85848543D01*
X167750500Y-85651456D01*
X167712052Y-85458170D01*
X167712051Y-85458169D01*
X167712051Y-85458165D01*
X167712049Y-85458160D01*
X167636635Y-85276092D01*
X167636628Y-85276079D01*
X167527139Y-85112218D01*
X167527136Y-85112214D01*
X167387785Y-84972863D01*
X167387781Y-84972860D01*
X167223920Y-84863371D01*
X167223907Y-84863364D01*
X167041839Y-84787950D01*
X167041829Y-84787947D01*
X166848543Y-84749500D01*
X166848541Y-84749500D01*
X166651459Y-84749500D01*
X166651457Y-84749500D01*
X166458170Y-84787947D01*
X166458160Y-84787950D01*
X166276092Y-84863364D01*
X166276079Y-84863371D01*
X166112218Y-84972860D01*
X166112214Y-84972863D01*
X165972863Y-85112214D01*
X165972860Y-85112218D01*
X165863371Y-85276079D01*
X165863364Y-85276092D01*
X165787950Y-85458160D01*
X165787947Y-85458170D01*
X165749500Y-85651456D01*
X165749500Y-85651459D01*
X165749500Y-85848541D01*
X165749500Y-85848543D01*
X165749499Y-85848543D01*
X125489975Y-85848543D01*
X125462052Y-85708170D01*
X125462051Y-85708169D01*
X125462051Y-85708165D01*
X125431034Y-85633284D01*
X125386635Y-85526092D01*
X125386628Y-85526079D01*
X125277139Y-85362218D01*
X125277136Y-85362214D01*
X125137785Y-85222863D01*
X125137781Y-85222860D01*
X124973920Y-85113371D01*
X124973907Y-85113364D01*
X124791839Y-85037950D01*
X124791829Y-85037947D01*
X124598543Y-84999500D01*
X124598541Y-84999500D01*
X124401459Y-84999500D01*
X124401457Y-84999500D01*
X124208170Y-85037947D01*
X124208160Y-85037950D01*
X124026092Y-85113364D01*
X124026079Y-85113371D01*
X123862218Y-85222860D01*
X123862214Y-85222863D01*
X123722862Y-85362215D01*
X123720853Y-85364664D01*
X123719476Y-85365601D01*
X123718553Y-85366525D01*
X123718377Y-85366349D01*
X123663107Y-85403998D01*
X123593262Y-85405869D01*
X123533494Y-85369681D01*
X123529147Y-85364664D01*
X123527137Y-85362215D01*
X123387785Y-85222863D01*
X123387781Y-85222860D01*
X123223920Y-85113371D01*
X123223907Y-85113364D01*
X123041839Y-85037950D01*
X123041829Y-85037947D01*
X122848543Y-84999500D01*
X122848541Y-84999500D01*
X122651459Y-84999500D01*
X122651457Y-84999500D01*
X122458170Y-85037947D01*
X122458160Y-85037950D01*
X122276092Y-85113364D01*
X122276079Y-85113371D01*
X122112218Y-85222860D01*
X122112214Y-85222863D01*
X121972863Y-85362214D01*
X121972860Y-85362218D01*
X121863371Y-85526079D01*
X121863364Y-85526092D01*
X121787950Y-85708160D01*
X121787947Y-85708170D01*
X121749500Y-85901456D01*
X121749500Y-85901459D01*
X121749500Y-86098541D01*
X121749500Y-86098543D01*
X121749499Y-86098543D01*
X99000500Y-86098543D01*
X99000500Y-80421153D01*
X170449500Y-80421153D01*
X170449500Y-80578846D01*
X170480261Y-80733489D01*
X170480264Y-80733501D01*
X170540602Y-80879172D01*
X170540609Y-80879185D01*
X170628210Y-81010288D01*
X170628213Y-81010292D01*
X170739707Y-81121786D01*
X170739711Y-81121789D01*
X170870814Y-81209390D01*
X170870827Y-81209397D01*
X171016498Y-81269735D01*
X171016503Y-81269737D01*
X171171153Y-81300499D01*
X171171156Y-81300500D01*
X171171158Y-81300500D01*
X171328844Y-81300500D01*
X171328845Y-81300499D01*
X171483497Y-81269737D01*
X171629179Y-81209394D01*
X171760289Y-81121789D01*
X171871789Y-81010289D01*
X171959394Y-80879179D01*
X172019737Y-80733497D01*
X172050500Y-80578842D01*
X172050500Y-80421158D01*
X172050500Y-80421155D01*
X172050499Y-80421153D01*
X172019738Y-80266510D01*
X172019737Y-80266503D01*
X172019735Y-80266498D01*
X171959397Y-80120827D01*
X171959390Y-80120814D01*
X171871789Y-79989711D01*
X171871786Y-79989707D01*
X171760292Y-79878213D01*
X171760288Y-79878210D01*
X171629185Y-79790609D01*
X171629172Y-79790602D01*
X171483501Y-79730264D01*
X171483489Y-79730261D01*
X171328845Y-79699500D01*
X171328842Y-79699500D01*
X171171158Y-79699500D01*
X171171155Y-79699500D01*
X171016510Y-79730261D01*
X171016498Y-79730264D01*
X170870827Y-79790602D01*
X170870814Y-79790609D01*
X170739711Y-79878210D01*
X170739707Y-79878213D01*
X170628213Y-79989707D01*
X170628210Y-79989711D01*
X170540609Y-80120814D01*
X170540602Y-80120827D01*
X170480264Y-80266498D01*
X170480261Y-80266510D01*
X170449500Y-80421153D01*
X99000500Y-80421153D01*
X99000500Y-76421153D01*
X162199500Y-76421153D01*
X162199500Y-76578846D01*
X162230261Y-76733489D01*
X162230264Y-76733501D01*
X162290602Y-76879172D01*
X162290609Y-76879185D01*
X162378210Y-77010288D01*
X162378213Y-77010292D01*
X162489707Y-77121786D01*
X162489711Y-77121789D01*
X162620814Y-77209390D01*
X162620827Y-77209397D01*
X162766498Y-77269735D01*
X162766503Y-77269737D01*
X162921153Y-77300499D01*
X162921156Y-77300500D01*
X162921158Y-77300500D01*
X163078844Y-77300500D01*
X163078845Y-77300499D01*
X163233497Y-77269737D01*
X163379179Y-77209394D01*
X163510289Y-77121789D01*
X163621789Y-77010289D01*
X163709394Y-76879179D01*
X163769737Y-76733497D01*
X163796581Y-76598543D01*
X169749499Y-76598543D01*
X169787947Y-76791829D01*
X169787950Y-76791839D01*
X169863364Y-76973907D01*
X169863371Y-76973920D01*
X169972860Y-77137781D01*
X169972863Y-77137785D01*
X170112214Y-77277136D01*
X170112218Y-77277139D01*
X170276079Y-77386628D01*
X170276092Y-77386635D01*
X170458160Y-77462049D01*
X170458165Y-77462051D01*
X170458169Y-77462051D01*
X170458170Y-77462052D01*
X170651456Y-77500500D01*
X170651459Y-77500500D01*
X170848543Y-77500500D01*
X170978582Y-77474632D01*
X171041835Y-77462051D01*
X171223914Y-77386632D01*
X171387782Y-77277139D01*
X171527139Y-77137782D01*
X171636632Y-76973914D01*
X171712051Y-76791835D01*
X171750500Y-76598541D01*
X171750500Y-76401459D01*
X171750500Y-76401456D01*
X171712052Y-76208170D01*
X171712051Y-76208169D01*
X171712051Y-76208165D01*
X171675872Y-76120821D01*
X171636635Y-76026092D01*
X171636628Y-76026079D01*
X171527139Y-75862218D01*
X171527136Y-75862214D01*
X171387785Y-75722863D01*
X171387781Y-75722860D01*
X171223920Y-75613371D01*
X171223907Y-75613364D01*
X171041839Y-75537950D01*
X171041829Y-75537947D01*
X170848543Y-75499500D01*
X170848541Y-75499500D01*
X170651459Y-75499500D01*
X170651457Y-75499500D01*
X170458170Y-75537947D01*
X170458160Y-75537950D01*
X170276092Y-75613364D01*
X170276079Y-75613371D01*
X170112218Y-75722860D01*
X170112214Y-75722863D01*
X169972863Y-75862214D01*
X169972860Y-75862218D01*
X169863371Y-76026079D01*
X169863364Y-76026092D01*
X169787950Y-76208160D01*
X169787947Y-76208170D01*
X169749500Y-76401456D01*
X169749500Y-76401459D01*
X169749500Y-76598541D01*
X169749500Y-76598543D01*
X169749499Y-76598543D01*
X163796581Y-76598543D01*
X163800500Y-76578842D01*
X163800500Y-76421158D01*
X163800183Y-76419564D01*
X163800183Y-76419561D01*
X163800182Y-76419558D01*
X163769738Y-76266510D01*
X163769737Y-76266503D01*
X163745571Y-76208160D01*
X163709397Y-76120827D01*
X163709390Y-76120814D01*
X163621789Y-75989711D01*
X163621786Y-75989707D01*
X163510292Y-75878213D01*
X163510288Y-75878210D01*
X163379185Y-75790609D01*
X163379172Y-75790602D01*
X163233501Y-75730264D01*
X163233489Y-75730261D01*
X163078845Y-75699500D01*
X163078842Y-75699500D01*
X162921158Y-75699500D01*
X162921155Y-75699500D01*
X162766510Y-75730261D01*
X162766498Y-75730264D01*
X162620827Y-75790602D01*
X162620814Y-75790609D01*
X162489711Y-75878210D01*
X162489707Y-75878213D01*
X162378213Y-75989707D01*
X162378210Y-75989711D01*
X162290609Y-76120814D01*
X162290602Y-76120827D01*
X162230264Y-76266498D01*
X162230261Y-76266510D01*
X162199500Y-76421153D01*
X99000500Y-76421153D01*
X99000500Y-74171153D01*
X173199500Y-74171153D01*
X173199500Y-74328846D01*
X173230261Y-74483489D01*
X173230264Y-74483501D01*
X173290602Y-74629172D01*
X173290609Y-74629185D01*
X173378210Y-74760288D01*
X173378213Y-74760292D01*
X173489707Y-74871786D01*
X173489711Y-74871789D01*
X173620814Y-74959390D01*
X173620827Y-74959397D01*
X173766498Y-75019735D01*
X173766503Y-75019737D01*
X173921153Y-75050499D01*
X173921156Y-75050500D01*
X173921158Y-75050500D01*
X174078844Y-75050500D01*
X174078845Y-75050499D01*
X174233497Y-75019737D01*
X174379179Y-74959394D01*
X174510289Y-74871789D01*
X174621789Y-74760289D01*
X174709394Y-74629179D01*
X174769737Y-74483497D01*
X174800500Y-74328842D01*
X174800500Y-74171158D01*
X174800500Y-74171155D01*
X174800499Y-74171153D01*
X174769738Y-74016510D01*
X174769737Y-74016503D01*
X174769735Y-74016498D01*
X174709397Y-73870827D01*
X174709390Y-73870814D01*
X174621789Y-73739711D01*
X174621786Y-73739707D01*
X174510292Y-73628213D01*
X174510288Y-73628210D01*
X174379185Y-73540609D01*
X174379172Y-73540602D01*
X174233501Y-73480264D01*
X174233489Y-73480261D01*
X174078845Y-73449500D01*
X174078842Y-73449500D01*
X173921158Y-73449500D01*
X173921155Y-73449500D01*
X173766510Y-73480261D01*
X173766498Y-73480264D01*
X173620827Y-73540602D01*
X173620814Y-73540609D01*
X173489711Y-73628210D01*
X173489707Y-73628213D01*
X173378213Y-73739707D01*
X173378210Y-73739711D01*
X173290609Y-73870814D01*
X173290602Y-73870827D01*
X173230264Y-74016498D01*
X173230261Y-74016510D01*
X173199500Y-74171153D01*
X99000500Y-74171153D01*
X99000500Y-70671153D01*
X144999500Y-70671153D01*
X144999500Y-70828846D01*
X145030261Y-70983489D01*
X145030264Y-70983501D01*
X145090602Y-71129172D01*
X145090609Y-71129185D01*
X145178210Y-71260288D01*
X145178213Y-71260292D01*
X145289707Y-71371786D01*
X145289711Y-71371789D01*
X145420814Y-71459390D01*
X145420827Y-71459397D01*
X145566498Y-71519735D01*
X145566503Y-71519737D01*
X145721153Y-71550499D01*
X145721156Y-71550500D01*
X145721158Y-71550500D01*
X145878844Y-71550500D01*
X145878845Y-71550499D01*
X146033497Y-71519737D01*
X146179179Y-71459394D01*
X146310289Y-71371789D01*
X146310292Y-71371786D01*
X146362319Y-71319760D01*
X146423642Y-71286275D01*
X146493334Y-71291259D01*
X146537681Y-71319760D01*
X146589707Y-71371786D01*
X146589711Y-71371789D01*
X146720814Y-71459390D01*
X146720827Y-71459397D01*
X146866498Y-71519735D01*
X146866503Y-71519737D01*
X147021153Y-71550499D01*
X147021156Y-71550500D01*
X147021158Y-71550500D01*
X147178844Y-71550500D01*
X147178845Y-71550499D01*
X147333497Y-71519737D01*
X147479179Y-71459394D01*
X147610289Y-71371789D01*
X147721789Y-71260289D01*
X147809394Y-71129179D01*
X147869737Y-70983497D01*
X147900500Y-70828842D01*
X147900500Y-70671158D01*
X147900500Y-70671155D01*
X147900499Y-70671153D01*
X147869738Y-70516510D01*
X147869737Y-70516503D01*
X147869735Y-70516498D01*
X147809397Y-70370827D01*
X147809390Y-70370814D01*
X147721789Y-70239711D01*
X147721786Y-70239707D01*
X147610292Y-70128213D01*
X147610288Y-70128210D01*
X147479185Y-70040609D01*
X147479172Y-70040602D01*
X147333501Y-69980264D01*
X147333489Y-69980261D01*
X147178845Y-69949500D01*
X147178842Y-69949500D01*
X147021158Y-69949500D01*
X147021155Y-69949500D01*
X146866510Y-69980261D01*
X146866498Y-69980264D01*
X146720827Y-70040602D01*
X146720814Y-70040609D01*
X146589711Y-70128210D01*
X146589707Y-70128213D01*
X146537681Y-70180240D01*
X146476358Y-70213725D01*
X146406666Y-70208741D01*
X146362319Y-70180240D01*
X146310292Y-70128213D01*
X146310288Y-70128210D01*
X146179185Y-70040609D01*
X146179172Y-70040602D01*
X146033501Y-69980264D01*
X146033489Y-69980261D01*
X145878845Y-69949500D01*
X145878842Y-69949500D01*
X145721158Y-69949500D01*
X145721155Y-69949500D01*
X145566510Y-69980261D01*
X145566498Y-69980264D01*
X145420827Y-70040602D01*
X145420814Y-70040609D01*
X145289711Y-70128210D01*
X145289707Y-70128213D01*
X145178213Y-70239707D01*
X145178210Y-70239711D01*
X145090609Y-70370814D01*
X145090602Y-70370827D01*
X145030264Y-70516498D01*
X145030261Y-70516510D01*
X144999500Y-70671153D01*
X99000500Y-70671153D01*
X99000500Y-69098543D01*
X157499499Y-69098543D01*
X157537947Y-69291829D01*
X157537950Y-69291839D01*
X157613364Y-69473907D01*
X157613371Y-69473920D01*
X157722860Y-69637781D01*
X157722863Y-69637785D01*
X157862214Y-69777136D01*
X157862218Y-69777139D01*
X158026079Y-69886628D01*
X158026092Y-69886635D01*
X158177864Y-69949500D01*
X158208165Y-69962051D01*
X158208169Y-69962051D01*
X158208170Y-69962052D01*
X158401456Y-70000500D01*
X158401459Y-70000500D01*
X158598543Y-70000500D01*
X158728582Y-69974632D01*
X158791835Y-69962051D01*
X158973914Y-69886632D01*
X159137782Y-69777139D01*
X159277139Y-69637782D01*
X159386632Y-69473914D01*
X159462051Y-69291835D01*
X159500500Y-69098541D01*
X159500500Y-68901459D01*
X159500500Y-68901456D01*
X159462052Y-68708170D01*
X159462051Y-68708169D01*
X159462051Y-68708165D01*
X159429334Y-68629179D01*
X159386635Y-68526092D01*
X159386628Y-68526079D01*
X159277139Y-68362218D01*
X159277136Y-68362214D01*
X159137785Y-68222863D01*
X159137781Y-68222860D01*
X158973920Y-68113371D01*
X158973907Y-68113364D01*
X158791839Y-68037950D01*
X158791829Y-68037947D01*
X158598543Y-67999500D01*
X158598541Y-67999500D01*
X158401459Y-67999500D01*
X158401457Y-67999500D01*
X158208170Y-68037947D01*
X158208160Y-68037950D01*
X158026092Y-68113364D01*
X158026079Y-68113371D01*
X157862218Y-68222860D01*
X157862214Y-68222863D01*
X157722863Y-68362214D01*
X157722860Y-68362218D01*
X157613371Y-68526079D01*
X157613364Y-68526092D01*
X157537950Y-68708160D01*
X157537947Y-68708170D01*
X157499500Y-68901456D01*
X157499500Y-68901459D01*
X157499500Y-69098541D01*
X157499500Y-69098543D01*
X157499499Y-69098543D01*
X99000500Y-69098543D01*
X99000500Y-68171153D01*
X142949500Y-68171153D01*
X142949500Y-68328846D01*
X142980261Y-68483489D01*
X142980264Y-68483501D01*
X143040602Y-68629172D01*
X143040609Y-68629185D01*
X143128210Y-68760288D01*
X143128213Y-68760292D01*
X143239707Y-68871786D01*
X143239711Y-68871789D01*
X143370814Y-68959390D01*
X143370827Y-68959397D01*
X143516498Y-69019735D01*
X143516503Y-69019737D01*
X143671153Y-69050499D01*
X143671156Y-69050500D01*
X143671158Y-69050500D01*
X143828844Y-69050500D01*
X143828845Y-69050499D01*
X143983497Y-69019737D01*
X144129179Y-68959394D01*
X144260289Y-68871789D01*
X144260292Y-68871786D01*
X144324393Y-68807686D01*
X144371786Y-68760292D01*
X144371789Y-68760289D01*
X144459394Y-68629179D01*
X144519737Y-68483497D01*
X144550500Y-68328842D01*
X144550500Y-68171158D01*
X144550500Y-68171155D01*
X144550499Y-68171153D01*
X144524003Y-68037949D01*
X144519737Y-68016503D01*
X144512694Y-67999500D01*
X144459397Y-67870827D01*
X144459390Y-67870814D01*
X144371789Y-67739711D01*
X144371786Y-67739707D01*
X144260292Y-67628213D01*
X144260288Y-67628210D01*
X144137040Y-67545858D01*
X144136991Y-67545826D01*
X144129179Y-67540606D01*
X144129172Y-67540602D01*
X143983501Y-67480264D01*
X143983489Y-67480261D01*
X143828845Y-67449500D01*
X143828842Y-67449500D01*
X143671158Y-67449500D01*
X143671155Y-67449500D01*
X143516510Y-67480261D01*
X143516498Y-67480264D01*
X143370827Y-67540602D01*
X143370814Y-67540609D01*
X143239711Y-67628210D01*
X143239707Y-67628213D01*
X143128213Y-67739707D01*
X143128210Y-67739711D01*
X143040609Y-67870814D01*
X143040602Y-67870827D01*
X142980264Y-68016498D01*
X142980261Y-68016510D01*
X142949500Y-68171153D01*
X99000500Y-68171153D01*
X99000500Y-65011304D01*
X139599500Y-65011304D01*
X139599500Y-65188695D01*
X139634103Y-65362658D01*
X139634106Y-65362667D01*
X139701983Y-65526540D01*
X139701990Y-65526553D01*
X139800535Y-65674034D01*
X139800538Y-65674038D01*
X139925961Y-65799461D01*
X139925965Y-65799464D01*
X140073446Y-65898009D01*
X140073459Y-65898016D01*
X140142355Y-65926553D01*
X140237334Y-65965894D01*
X140237336Y-65965894D01*
X140237341Y-65965896D01*
X140411304Y-66000499D01*
X140411307Y-66000500D01*
X140411309Y-66000500D01*
X140588693Y-66000500D01*
X140588694Y-66000499D01*
X140646682Y-65988964D01*
X140762658Y-65965896D01*
X140762661Y-65965894D01*
X140762666Y-65965894D01*
X140926547Y-65898013D01*
X141074035Y-65799464D01*
X141199464Y-65674035D01*
X141298013Y-65526547D01*
X141345748Y-65411304D01*
X150849500Y-65411304D01*
X150849500Y-65588695D01*
X150884103Y-65762658D01*
X150884106Y-65762667D01*
X150951983Y-65926540D01*
X150951990Y-65926553D01*
X151050535Y-66074034D01*
X151050538Y-66074038D01*
X151175961Y-66199461D01*
X151175965Y-66199464D01*
X151323446Y-66298009D01*
X151323459Y-66298016D01*
X151438354Y-66345606D01*
X151487334Y-66365894D01*
X151487336Y-66365894D01*
X151487341Y-66365896D01*
X151661304Y-66400499D01*
X151661307Y-66400500D01*
X151661309Y-66400500D01*
X151838693Y-66400500D01*
X151838694Y-66400499D01*
X151896682Y-66388964D01*
X152012658Y-66365896D01*
X152012661Y-66365894D01*
X152012666Y-66365894D01*
X152176547Y-66298013D01*
X152324035Y-66199464D01*
X152449464Y-66074035D01*
X152548013Y-65926547D01*
X152615894Y-65762666D01*
X152650500Y-65588691D01*
X152650500Y-65411309D01*
X152650500Y-65411306D01*
X152650499Y-65411304D01*
X152615896Y-65237341D01*
X152615893Y-65237332D01*
X152548016Y-65073459D01*
X152548009Y-65073446D01*
X152449464Y-64925965D01*
X152449461Y-64925961D01*
X152324038Y-64800538D01*
X152324034Y-64800535D01*
X152176553Y-64701990D01*
X152176540Y-64701983D01*
X152012667Y-64634106D01*
X152012658Y-64634103D01*
X151838694Y-64599500D01*
X151838691Y-64599500D01*
X151661309Y-64599500D01*
X151661306Y-64599500D01*
X151487341Y-64634103D01*
X151487332Y-64634106D01*
X151323459Y-64701983D01*
X151323446Y-64701990D01*
X151175965Y-64800535D01*
X151175961Y-64800538D01*
X151050538Y-64925961D01*
X151050535Y-64925965D01*
X150951990Y-65073446D01*
X150951983Y-65073459D01*
X150884106Y-65237332D01*
X150884103Y-65237341D01*
X150849500Y-65411304D01*
X141345748Y-65411304D01*
X141365894Y-65362666D01*
X141400500Y-65188691D01*
X141400500Y-65011309D01*
X141400500Y-65011306D01*
X141400499Y-65011304D01*
X141365896Y-64837341D01*
X141365893Y-64837332D01*
X141298016Y-64673459D01*
X141298009Y-64673446D01*
X141199464Y-64525965D01*
X141199461Y-64525961D01*
X141074038Y-64400538D01*
X141074034Y-64400535D01*
X140926553Y-64301990D01*
X140926540Y-64301983D01*
X140762667Y-64234106D01*
X140762658Y-64234103D01*
X140588694Y-64199500D01*
X140588691Y-64199500D01*
X140411309Y-64199500D01*
X140411306Y-64199500D01*
X140237341Y-64234103D01*
X140237332Y-64234106D01*
X140073459Y-64301983D01*
X140073446Y-64301990D01*
X139925965Y-64400535D01*
X139925961Y-64400538D01*
X139800538Y-64525961D01*
X139800535Y-64525965D01*
X139701990Y-64673446D01*
X139701983Y-64673459D01*
X139634106Y-64837332D01*
X139634103Y-64837341D01*
X139599500Y-65011304D01*
X99000500Y-65011304D01*
X99000500Y-62503543D01*
X141129499Y-62503543D01*
X141167947Y-62696829D01*
X141167950Y-62696839D01*
X141243364Y-62878907D01*
X141243371Y-62878920D01*
X141352860Y-63042781D01*
X141352863Y-63042785D01*
X141492214Y-63182136D01*
X141492218Y-63182139D01*
X141656079Y-63291628D01*
X141656092Y-63291635D01*
X141838160Y-63367049D01*
X141838165Y-63367051D01*
X141838169Y-63367051D01*
X141838170Y-63367052D01*
X142031456Y-63405500D01*
X142031459Y-63405500D01*
X142228543Y-63405500D01*
X142358582Y-63379632D01*
X142421835Y-63367051D01*
X142603914Y-63291632D01*
X142767782Y-63182139D01*
X142907139Y-63042782D01*
X143016632Y-62878914D01*
X143092051Y-62696835D01*
X143130500Y-62503541D01*
X143130500Y-61990951D01*
X143150185Y-61923912D01*
X143202989Y-61878157D01*
X143272147Y-61868213D01*
X143316499Y-61883563D01*
X143336322Y-61895008D01*
X143483707Y-61934500D01*
X143483710Y-61934500D01*
X143636290Y-61934500D01*
X143636293Y-61934500D01*
X143783678Y-61895008D01*
X143915821Y-61818715D01*
X144023715Y-61710821D01*
X144100008Y-61578678D01*
X144139500Y-61431293D01*
X144139500Y-61278707D01*
X148760500Y-61278707D01*
X148760500Y-61431293D01*
X148799992Y-61578678D01*
X148799993Y-61578681D01*
X148876282Y-61710817D01*
X148876284Y-61710819D01*
X148876285Y-61710821D01*
X148984179Y-61818715D01*
X148984180Y-61818716D01*
X148984182Y-61818717D01*
X149116318Y-61895006D01*
X149116319Y-61895006D01*
X149116322Y-61895008D01*
X149263707Y-61934500D01*
X149263710Y-61934500D01*
X149416290Y-61934500D01*
X149416293Y-61934500D01*
X149563678Y-61895008D01*
X149583499Y-61883563D01*
X149651399Y-61867091D01*
X149717426Y-61889943D01*
X149760617Y-61944864D01*
X149769500Y-61990951D01*
X149769500Y-62503541D01*
X149769500Y-62503543D01*
X149769499Y-62503543D01*
X149807947Y-62696829D01*
X149807950Y-62696839D01*
X149883364Y-62878907D01*
X149883371Y-62878920D01*
X149992860Y-63042781D01*
X149992863Y-63042785D01*
X150132214Y-63182136D01*
X150132218Y-63182139D01*
X150296079Y-63291628D01*
X150296092Y-63291635D01*
X150478160Y-63367049D01*
X150478165Y-63367051D01*
X150478169Y-63367051D01*
X150478170Y-63367052D01*
X150671456Y-63405500D01*
X150671459Y-63405500D01*
X150868543Y-63405500D01*
X150998582Y-63379632D01*
X151061835Y-63367051D01*
X151243914Y-63291632D01*
X151407782Y-63182139D01*
X151547139Y-63042782D01*
X151656632Y-62878914D01*
X151732051Y-62696835D01*
X151770500Y-62503541D01*
X151770500Y-61206459D01*
X151770500Y-61206456D01*
X151732052Y-61013170D01*
X151732051Y-61013169D01*
X151732051Y-61013165D01*
X151706398Y-60951232D01*
X151656635Y-60831092D01*
X151656628Y-60831079D01*
X151547139Y-60667218D01*
X151547136Y-60667214D01*
X151407785Y-60527863D01*
X151407781Y-60527860D01*
X151243920Y-60418371D01*
X151243907Y-60418364D01*
X151061839Y-60342950D01*
X151061829Y-60342947D01*
X150868543Y-60304500D01*
X150868541Y-60304500D01*
X150671459Y-60304500D01*
X150671457Y-60304500D01*
X150478170Y-60342947D01*
X150478160Y-60342950D01*
X150296092Y-60418364D01*
X150296079Y-60418371D01*
X150132218Y-60527860D01*
X150132214Y-60527863D01*
X149992863Y-60667214D01*
X149992860Y-60667218D01*
X149883371Y-60831079D01*
X149883365Y-60831091D01*
X149881054Y-60836671D01*
X149837212Y-60891074D01*
X149770917Y-60913137D01*
X149703218Y-60895857D01*
X149700192Y-60893809D01*
X149695821Y-60891285D01*
X149624158Y-60849910D01*
X149563681Y-60814993D01*
X149563682Y-60814993D01*
X149551595Y-60811754D01*
X149416293Y-60775500D01*
X149263707Y-60775500D01*
X149128404Y-60811754D01*
X149116318Y-60814993D01*
X148984182Y-60891282D01*
X148984176Y-60891287D01*
X148876287Y-60999176D01*
X148876282Y-60999182D01*
X148799993Y-61131318D01*
X148799992Y-61131322D01*
X148760500Y-61278707D01*
X144139500Y-61278707D01*
X144100008Y-61131322D01*
X144091217Y-61116096D01*
X144023717Y-60999182D01*
X144023712Y-60999176D01*
X143915823Y-60891287D01*
X143915817Y-60891282D01*
X143783681Y-60814993D01*
X143783682Y-60814993D01*
X143771595Y-60811754D01*
X143636293Y-60775500D01*
X143483707Y-60775500D01*
X143348404Y-60811754D01*
X143336318Y-60814993D01*
X143197140Y-60895349D01*
X143195643Y-60892757D01*
X143143795Y-60912788D01*
X143075353Y-60898735D01*
X143025374Y-60849910D01*
X143018943Y-60836666D01*
X143016634Y-60831092D01*
X143016632Y-60831086D01*
X142979333Y-60775264D01*
X142907139Y-60667217D01*
X142767785Y-60527863D01*
X142767781Y-60527860D01*
X142603920Y-60418371D01*
X142603907Y-60418364D01*
X142421839Y-60342950D01*
X142421829Y-60342947D01*
X142228543Y-60304500D01*
X142228541Y-60304500D01*
X142031459Y-60304500D01*
X142031457Y-60304500D01*
X141838170Y-60342947D01*
X141838160Y-60342950D01*
X141656092Y-60418364D01*
X141656079Y-60418371D01*
X141492218Y-60527860D01*
X141492214Y-60527863D01*
X141352863Y-60667214D01*
X141352860Y-60667218D01*
X141243371Y-60831079D01*
X141243364Y-60831092D01*
X141167950Y-61013160D01*
X141167947Y-61013170D01*
X141129500Y-61206456D01*
X141129500Y-61206459D01*
X141129500Y-62503541D01*
X141129500Y-62503543D01*
X141129499Y-62503543D01*
X99000500Y-62503543D01*
X99000500Y-59303052D01*
X99000649Y-59296968D01*
X99018497Y-58933665D01*
X99019690Y-58921555D01*
X99029987Y-58852136D01*
X99072614Y-58564765D01*
X99074981Y-58552863D01*
X99162631Y-58202947D01*
X99166152Y-58191341D01*
X99172520Y-58173543D01*
X141129499Y-58173543D01*
X141167947Y-58366829D01*
X141167950Y-58366839D01*
X141243364Y-58548907D01*
X141243371Y-58548920D01*
X141352860Y-58712781D01*
X141352863Y-58712785D01*
X141492214Y-58852136D01*
X141492218Y-58852139D01*
X141656079Y-58961628D01*
X141656092Y-58961635D01*
X141838160Y-59037049D01*
X141838165Y-59037051D01*
X141838169Y-59037051D01*
X141838170Y-59037052D01*
X142031456Y-59075500D01*
X142031459Y-59075500D01*
X142228543Y-59075500D01*
X142358582Y-59049632D01*
X142421835Y-59037051D01*
X142603914Y-58961632D01*
X142767782Y-58852139D01*
X142907139Y-58712782D01*
X143016632Y-58548914D01*
X143092051Y-58366835D01*
X143113304Y-58259992D01*
X143130500Y-58173543D01*
X149769499Y-58173543D01*
X149807947Y-58366829D01*
X149807950Y-58366839D01*
X149883364Y-58548907D01*
X149883371Y-58548920D01*
X149992860Y-58712781D01*
X149992863Y-58712785D01*
X150132214Y-58852136D01*
X150132218Y-58852139D01*
X150296079Y-58961628D01*
X150296092Y-58961635D01*
X150478160Y-59037049D01*
X150478165Y-59037051D01*
X150478169Y-59037051D01*
X150478170Y-59037052D01*
X150671456Y-59075500D01*
X150671459Y-59075500D01*
X150868543Y-59075500D01*
X150998582Y-59049632D01*
X151061835Y-59037051D01*
X151243914Y-58961632D01*
X151407782Y-58852139D01*
X151547139Y-58712782D01*
X151656632Y-58548914D01*
X151732051Y-58366835D01*
X151753304Y-58259992D01*
X151770500Y-58173543D01*
X151770500Y-57777135D01*
X176624500Y-57777135D01*
X176624500Y-59222870D01*
X176624501Y-59222876D01*
X176630908Y-59282483D01*
X176681202Y-59417328D01*
X176681206Y-59417335D01*
X176767452Y-59532544D01*
X176767453Y-59532544D01*
X176767454Y-59532546D01*
X176818740Y-59570939D01*
X176852539Y-59596241D01*
X176894409Y-59652175D01*
X176899393Y-59721867D01*
X176878545Y-59768392D01*
X176794624Y-59883900D01*
X176710620Y-60048764D01*
X176710619Y-60048767D01*
X176653445Y-60224734D01*
X176624500Y-60407486D01*
X176624500Y-60592513D01*
X176653445Y-60775265D01*
X176710619Y-60951232D01*
X176710620Y-60951235D01*
X176794622Y-61116096D01*
X176903379Y-61265787D01*
X177034213Y-61396621D01*
X177038421Y-61399678D01*
X177038432Y-61399686D01*
X177081094Y-61455019D01*
X177087069Y-61524633D01*
X177054459Y-61586426D01*
X177038432Y-61600314D01*
X177034210Y-61603381D01*
X176903381Y-61734210D01*
X176903381Y-61734211D01*
X176903379Y-61734213D01*
X176895516Y-61745036D01*
X176794622Y-61883903D01*
X176710620Y-62048764D01*
X176710619Y-62048767D01*
X176653445Y-62224734D01*
X176624500Y-62407486D01*
X176624500Y-62592513D01*
X176653445Y-62775265D01*
X176710619Y-62951232D01*
X176710620Y-62951235D01*
X176757268Y-63042785D01*
X176794622Y-63116096D01*
X176903379Y-63265787D01*
X177034213Y-63396621D01*
X177038421Y-63399678D01*
X177038432Y-63399686D01*
X177081094Y-63455019D01*
X177087069Y-63524633D01*
X177054459Y-63586426D01*
X177038432Y-63600314D01*
X177034210Y-63603381D01*
X176903381Y-63734210D01*
X176903381Y-63734211D01*
X176903379Y-63734213D01*
X176856672Y-63798499D01*
X176794622Y-63883903D01*
X176710620Y-64048764D01*
X176710619Y-64048767D01*
X176653445Y-64224734D01*
X176641209Y-64301990D01*
X176624500Y-64407486D01*
X176624500Y-64592514D01*
X176631087Y-64634103D01*
X176653445Y-64775265D01*
X176710619Y-64951232D01*
X176710620Y-64951235D01*
X176772894Y-65073453D01*
X176794622Y-65116096D01*
X176903379Y-65265787D01*
X177034213Y-65396621D01*
X177054429Y-65411309D01*
X177108831Y-65450834D01*
X177123806Y-65470254D01*
X177753554Y-66100000D01*
X177747339Y-66100000D01*
X177645606Y-66127259D01*
X177554394Y-66179920D01*
X177479920Y-66254394D01*
X177427259Y-66345606D01*
X177400000Y-66447339D01*
X177400000Y-66453553D01*
X176810015Y-65863568D01*
X176795049Y-65884167D01*
X176711084Y-66048956D01*
X176711083Y-66048959D01*
X176653933Y-66224852D01*
X176625000Y-66407526D01*
X176625000Y-66592473D01*
X176653933Y-66775147D01*
X176711083Y-66951040D01*
X176711084Y-66951043D01*
X176795050Y-67115834D01*
X176810015Y-67136430D01*
X176810016Y-67136431D01*
X177400000Y-66546447D01*
X177400000Y-66552661D01*
X177427259Y-66654394D01*
X177479920Y-66745606D01*
X177554394Y-66820080D01*
X177645606Y-66872741D01*
X177747339Y-66900000D01*
X177753553Y-66900000D01*
X177163568Y-67489983D01*
X177163568Y-67489984D01*
X177184165Y-67504949D01*
X177348956Y-67588915D01*
X177348959Y-67588916D01*
X177524852Y-67646066D01*
X177707527Y-67675000D01*
X177892473Y-67675000D01*
X178075147Y-67646066D01*
X178251040Y-67588916D01*
X178251043Y-67588915D01*
X178415836Y-67504947D01*
X178415845Y-67504942D01*
X178436430Y-67489984D01*
X178436431Y-67489983D01*
X177846448Y-66900000D01*
X177852661Y-66900000D01*
X177954394Y-66872741D01*
X178045606Y-66820080D01*
X178120080Y-66745606D01*
X178172741Y-66654394D01*
X178200000Y-66552661D01*
X178200000Y-66546447D01*
X178789983Y-67136430D01*
X178789984Y-67136430D01*
X178804942Y-67115845D01*
X178804947Y-67115836D01*
X178888915Y-66951043D01*
X178888916Y-66951040D01*
X178946066Y-66775147D01*
X178975000Y-66592473D01*
X178975000Y-66407526D01*
X178946066Y-66224852D01*
X178888916Y-66048959D01*
X178888915Y-66048956D01*
X178804949Y-65884165D01*
X178789983Y-65863568D01*
X178200000Y-66453551D01*
X178200000Y-66447339D01*
X178172741Y-66345606D01*
X178120080Y-66254394D01*
X178045606Y-66179920D01*
X177954394Y-66127259D01*
X177852661Y-66100000D01*
X177846447Y-66100000D01*
X178460675Y-65485771D01*
X178491165Y-65450836D01*
X178565787Y-65396621D01*
X178696621Y-65265787D01*
X178805378Y-65116096D01*
X178889379Y-64951235D01*
X178946555Y-64775264D01*
X178975500Y-64592514D01*
X178975500Y-64407486D01*
X178946555Y-64224736D01*
X178889379Y-64048765D01*
X178889379Y-64048764D01*
X178805377Y-63883903D01*
X178696621Y-63734213D01*
X178565787Y-63603379D01*
X178561576Y-63600319D01*
X178518909Y-63544994D01*
X178512926Y-63475381D01*
X178545529Y-63413585D01*
X178561570Y-63399684D01*
X178565787Y-63396621D01*
X178696621Y-63265787D01*
X178805378Y-63116096D01*
X178889379Y-62951235D01*
X178946555Y-62775264D01*
X178975500Y-62592514D01*
X178975500Y-62407486D01*
X178946555Y-62224736D01*
X178889379Y-62048765D01*
X178889379Y-62048764D01*
X178825763Y-61923912D01*
X178805378Y-61883904D01*
X178696621Y-61734213D01*
X178565787Y-61603379D01*
X178561576Y-61600319D01*
X178518909Y-61544994D01*
X178512926Y-61475381D01*
X178545529Y-61413585D01*
X178561570Y-61399684D01*
X178565787Y-61396621D01*
X178696621Y-61265787D01*
X178805378Y-61116096D01*
X178889379Y-60951235D01*
X178946555Y-60775264D01*
X178975500Y-60592514D01*
X178975500Y-60407486D01*
X178946555Y-60224736D01*
X178889379Y-60048765D01*
X178889379Y-60048764D01*
X178805377Y-59883903D01*
X178721454Y-59768393D01*
X178697974Y-59702586D01*
X178713799Y-59634532D01*
X178747459Y-59596241D01*
X178832546Y-59532546D01*
X178918796Y-59417331D01*
X178969091Y-59282483D01*
X178975500Y-59222873D01*
X178975499Y-57777128D01*
X178969091Y-57717517D01*
X178918796Y-57582669D01*
X178918795Y-57582668D01*
X178918793Y-57582664D01*
X178832547Y-57467455D01*
X178832544Y-57467452D01*
X178717335Y-57381206D01*
X178717328Y-57381202D01*
X178582482Y-57330908D01*
X178582483Y-57330908D01*
X178522883Y-57324501D01*
X178522881Y-57324500D01*
X178522873Y-57324500D01*
X178522864Y-57324500D01*
X177077129Y-57324500D01*
X177077123Y-57324501D01*
X177017516Y-57330908D01*
X176882671Y-57381202D01*
X176882664Y-57381206D01*
X176767455Y-57467452D01*
X176767452Y-57467455D01*
X176681206Y-57582664D01*
X176681202Y-57582671D01*
X176630908Y-57717517D01*
X176624501Y-57777116D01*
X176624501Y-57777123D01*
X176624500Y-57777135D01*
X151770500Y-57777135D01*
X151770500Y-57176456D01*
X151732052Y-56983170D01*
X151732051Y-56983169D01*
X151732051Y-56983165D01*
X151691434Y-56885105D01*
X151656635Y-56801092D01*
X151656628Y-56801079D01*
X151547139Y-56637218D01*
X151547136Y-56637214D01*
X151407785Y-56497863D01*
X151407781Y-56497860D01*
X151243920Y-56388371D01*
X151243907Y-56388364D01*
X151061839Y-56312950D01*
X151061829Y-56312947D01*
X150868543Y-56274500D01*
X150868541Y-56274500D01*
X150671459Y-56274500D01*
X150671457Y-56274500D01*
X150478170Y-56312947D01*
X150478160Y-56312950D01*
X150296092Y-56388364D01*
X150296079Y-56388371D01*
X150132218Y-56497860D01*
X150132214Y-56497863D01*
X149992863Y-56637214D01*
X149992860Y-56637218D01*
X149883371Y-56801079D01*
X149883364Y-56801092D01*
X149807950Y-56983160D01*
X149807947Y-56983170D01*
X149769500Y-57176456D01*
X149769500Y-57176459D01*
X149769500Y-58173541D01*
X149769500Y-58173543D01*
X149769499Y-58173543D01*
X143130500Y-58173543D01*
X143130500Y-57176456D01*
X143092052Y-56983170D01*
X143092051Y-56983169D01*
X143092051Y-56983165D01*
X143051434Y-56885105D01*
X143016635Y-56801092D01*
X143016628Y-56801079D01*
X142907139Y-56637218D01*
X142907136Y-56637214D01*
X142767785Y-56497863D01*
X142767781Y-56497860D01*
X142603920Y-56388371D01*
X142603907Y-56388364D01*
X142421839Y-56312950D01*
X142421829Y-56312947D01*
X142228543Y-56274500D01*
X142228541Y-56274500D01*
X142031459Y-56274500D01*
X142031457Y-56274500D01*
X141838170Y-56312947D01*
X141838160Y-56312950D01*
X141656092Y-56388364D01*
X141656079Y-56388371D01*
X141492218Y-56497860D01*
X141492214Y-56497863D01*
X141352863Y-56637214D01*
X141352860Y-56637218D01*
X141243371Y-56801079D01*
X141243364Y-56801092D01*
X141167950Y-56983160D01*
X141167947Y-56983170D01*
X141129500Y-57176456D01*
X141129500Y-57176459D01*
X141129500Y-58173541D01*
X141129500Y-58173543D01*
X141129499Y-58173543D01*
X99172520Y-58173543D01*
X99287672Y-57851717D01*
X99292314Y-57840509D01*
X99446547Y-57514409D01*
X99452262Y-57503717D01*
X99637704Y-57194327D01*
X99644447Y-57184234D01*
X99859329Y-56894500D01*
X99867032Y-56885115D01*
X100109273Y-56617843D01*
X100117843Y-56609273D01*
X100385115Y-56367032D01*
X100394500Y-56359329D01*
X100684234Y-56144447D01*
X100694327Y-56137704D01*
X101003717Y-55952262D01*
X101014409Y-55946547D01*
X101340509Y-55792314D01*
X101351717Y-55787672D01*
X101691341Y-55666152D01*
X101702947Y-55662631D01*
X102052863Y-55574981D01*
X102064765Y-55572614D01*
X102421561Y-55519689D01*
X102433659Y-55518497D01*
X102742885Y-55503305D01*
X102796968Y-55500649D01*
X102803052Y-55500500D01*
X102865892Y-55500500D01*
X194134108Y-55500500D01*
X194196948Y-55500500D01*
X194203032Y-55500649D01*
G37*
%TD.AperFunction*%
%TD*%
M02*
